<svg version="1.1" id="Layer_1" xmlns="http://www.w3.org/2000/svg" xmlns:xlink="http://www.w3.org/1999/xlink" x="0px" y="0px"
	 width="100%" viewBox="0 0 512 512" enable-background="new 0 0 512 512" xml:space="preserve">
<path fill="#010100" opacity="1.000000" stroke="none" 
	d="
M513.000000,183.000000 
	C513.000000,293.306519 513.000000,403.113037 513.000000,512.959778 
	C342.401794,512.959778 171.803604,512.959778 1.102697,512.959778 
	C1.102697,342.443512 1.102697,171.886932 1.102697,1.165182 
	C171.666534,1.165182 342.333252,1.165182 513.000000,1.165182 
	C513.000000,61.529697 513.000000,122.014847 513.000000,183.000000 
M89.001526,179.500641 
	C89.001526,194.593704 89.001526,209.686783 89.001526,225.183472 
	C67.351349,225.183472 46.282955,225.183472 25.293343,225.183472 
	C25.293343,278.653473 25.293343,331.711853 25.293343,384.706299 
	C62.647736,384.706299 99.709579,384.706299 136.717804,384.706299 
	C136.717804,310.026703 136.717804,235.639633 136.717804,161.289368 
	C120.701973,161.289368 104.968552,161.289368 89.001526,161.289368 
	C89.001526,167.217316 89.001526,172.859299 89.001526,179.500641 
M278.002014,103.470177 
	C283.821411,103.776772 289.638092,104.153397 295.460632,104.378922 
	C344.234222,106.268105 392.652405,103.757561 440.215363,91.882210 
	C455.212494,88.137772 470.123138,83.765167 482.753693,74.269150 
	C491.117523,67.980995 491.387573,61.698601 482.770233,55.928837 
	C475.670898,51.175499 467.849518,47.105724 459.815399,44.212196 
	C426.632507,32.261230 391.949524,28.181561 356.997192,26.046408 
	C324.690765,24.072887 292.403687,24.675014 260.204315,28.046246 
	C232.860077,30.909153 205.701614,35.049664 179.947418,45.114883 
	C171.726578,48.327744 163.890594,53.047203 156.709854,58.229275 
	C151.272461,62.153225 151.765808,67.089195 156.578857,71.893326 
	C158.559860,73.870674 160.771820,75.897614 163.274170,77.021652 
	C172.639359,81.228401 181.925781,85.843498 191.681473,88.903564 
	C219.440445,97.610718 248.129471,101.366852 278.002014,103.470177 
M153.000244,418.500000 
	C153.000244,426.990631 153.461975,435.514160 152.860397,443.961975 
	C152.339005,451.283783 155.399292,456.064148 161.157394,459.713074 
	C163.540176,461.223114 165.929413,462.774933 168.474792,463.968475 
	C201.421326,479.417236 236.880997,483.474182 272.674683,487.190613 
	C272.674683,460.279175 272.674683,433.749329 272.674683,408.165527 
	C251.861450,404.908569 231.416885,402.224121 211.188004,398.399017 
	C190.979660,394.577789 171.345520,388.597351 153.000244,377.323669 
	C153.000244,391.286224 153.000244,404.393127 153.000244,418.500000 
M203.260757,284.205475 
	C225.993973,290.109558 249.166214,293.108765 272.777222,295.062622 
	C272.777222,268.281921 272.777222,241.885666 272.777222,215.353638 
	C231.517624,210.897339 190.410919,206.527054 153.000183,185.673309 
	C153.000183,208.722107 153.123550,231.189423 152.907990,253.653488 
	C152.858032,258.859528 154.624405,262.696960 158.665283,265.615540 
	C161.353470,267.557098 163.990326,269.822479 167.017151,270.997681 
	C178.750046,275.553131 190.629990,279.729797 203.260757,284.205475 
M212.938354,382.599304 
	C232.743591,385.731750 252.548828,388.864197 272.618988,392.038544 
	C272.618988,364.174927 272.618988,337.665863 272.618988,311.331573 
	C231.265030,306.870361 190.318130,302.472992 153.000229,281.685120 
	C153.000229,304.217407 153.247238,326.183746 152.854080,348.138580 
	C152.731506,354.983246 155.197906,359.621613 160.610733,363.154785 
	C162.696136,364.516052 164.781891,365.898834 166.976242,367.067627 
	C181.187210,374.636780 196.547562,378.834625 212.938354,382.599304 
M265.970367,198.454559 
	C268.211456,198.642426 270.452545,198.830276 272.668182,199.016006 
	C272.668182,172.064484 272.668182,145.663483 272.668182,119.381737 
	C231.344757,114.951538 190.319183,110.776894 153.000183,89.849915 
	C153.000183,112.812958 153.124084,135.283051 152.907913,157.749863 
	C152.857590,162.979858 154.541016,167.086639 158.783295,169.617096 
	C165.601120,173.683838 172.458069,177.960953 179.820999,180.788666 
	C207.228836,191.314590 236.002304,195.636017 265.970367,198.454559 
M487.340363,90.350502 
	C483.855255,92.276932 480.462372,94.398262 476.869812,96.097496 
	C456.694427,105.640144 435.155548,110.496964 413.284943,113.922066 
	C398.715149,116.203804 384.030640,117.752739 369.217041,119.652794 
	C369.217041,143.952560 369.217041,168.318924 369.217041,193.175949 
	C373.086121,191.286743 376.595490,189.573181 380.600708,187.617493 
	C382.922516,190.145157 385.013367,192.771606 387.488495,194.964233 
	C388.678467,196.018433 390.682129,196.945572 392.167633,196.756241 
	C415.111694,193.831818 437.943817,190.118103 459.647858,181.816910 
	C467.634613,178.762161 475.161835,174.359116 482.586975,170.035767 
	C487.294586,167.294708 489.205963,162.824524 489.119812,156.984695 
	C488.812897,136.180450 489.018188,115.368858 488.961426,94.560242 
	C488.957336,93.059433 488.405518,91.560112 487.340363,90.350502 
M405.412781,482.948730 
	C419.384338,479.955597 433.466553,477.393402 447.294739,473.842010 
	C459.854614,470.616364 472.071228,466.185608 482.699219,458.315094 
	C487.005310,455.126251 489.159790,451.252533 489.096008,445.624176 
	C488.856232,424.469666 489.005493,403.310791 488.986877,382.153564 
	C488.985657,380.789276 488.797668,379.425171 488.697845,378.077515 
	C482.924133,380.918732 477.687347,383.808868 472.211243,386.135956 
	C449.515869,395.780365 425.461670,400.067352 401.293457,403.912292 
	C399.350616,404.221405 397.228119,405.310120 395.812042,406.680359 
	C390.563934,411.758484 385.576813,417.106293 380.494995,422.349365 
	C376.428162,420.339386 372.932007,418.611420 369.221985,416.777771 
	C369.221985,440.484680 369.221985,463.584930 369.221985,487.401672 
	C381.194214,485.918732 392.867096,484.472870 405.412781,482.948730 
M328.593018,408.118500 
	C329.958923,407.118530 331.192719,405.785431 332.715668,405.181396 
	C337.189850,403.406799 342.365204,402.779785 346.207550,400.154388 
	C355.818909,393.587036 364.671570,394.013062 373.610535,400.944061 
	C376.163422,402.923492 377.951721,401.895050 379.950928,399.818695 
	C385.843964,393.698181 391.692902,387.499084 398.017731,381.843658 
	C401.909882,378.363403 402.983643,375.349640 399.681000,371.014984 
	C394.290894,363.940399 392.883484,356.682648 398.997498,349.109253 
	C400.204712,347.613892 401.104065,345.556702 401.355713,343.654175 
	C402.948883,331.609222 410.283966,325.728638 421.770813,324.164124 
	C424.553650,323.785034 425.091248,322.190796 425.051483,319.648987 
	C424.918610,311.152954 424.621796,302.630554 425.136230,294.163696 
	C425.472839,288.623108 424.217255,285.385254 418.279541,284.629517 
	C415.689301,284.299866 413.266907,282.790955 410.677002,282.284119 
	C407.323639,281.627838 405.700653,279.910706 404.852966,276.555756 
	C403.758850,272.225677 402.734283,267.521118 400.260529,263.965118 
	C393.488556,254.230225 394.015350,245.210114 401.069153,236.116455 
	C402.677307,234.043228 402.278992,232.377701 400.316101,230.555496 
	C396.289307,226.817245 392.530273,222.792221 388.608917,218.938232 
	C384.817902,215.212341 381.353790,209.255234 377.022491,208.515625 
	C372.755951,207.787094 367.682800,212.644226 362.755432,214.497177 
	C360.799194,215.232819 358.065338,215.055664 356.061310,214.298904 
	C349.235107,211.721085 342.741241,208.163773 335.798248,206.027878 
	C330.778717,204.483673 328.276642,202.061890 326.866211,196.992416 
	C323.507721,184.921204 323.229401,184.998642 310.858063,184.998642 
	C303.610046,184.998642 296.362000,184.998642 289.321838,184.998642 
	C289.321838,196.538528 289.321838,207.297440 289.321838,218.105469 
	C341.288605,208.603424 390.050842,247.584824 392.850128,300.194366 
	C394.150146,324.626251 386.514771,346.289856 369.871918,364.234467 
	C348.124969,387.682281 320.848999,396.189423 289.385376,391.886627 
	C289.385376,403.106506 289.385376,413.985321 289.385376,425.001312 
	C295.432159,425.001312 301.093384,425.029816 306.754181,424.992981 
	C312.078308,424.958374 319.038483,426.879242 322.294159,424.247498 
	C326.010071,421.243774 326.426666,414.158508 328.593018,408.118500 
M409.937317,217.569702 
	C413.118073,220.744278 416.189117,224.040222 419.518768,227.050064 
	C421.685272,229.008469 422.255981,230.626282 420.620758,233.361267 
	C417.899170,237.913116 415.638184,242.742554 413.231140,247.479462 
	C411.640747,250.609344 418.030670,267.564423 421.261841,268.861938 
	C422.029755,269.170288 422.839935,269.373016 423.629822,269.627106 
	C429.419830,271.489655 435.209656,273.352966 441.251770,275.297150 
	C441.251770,278.235657 441.251770,280.786346 441.251770,283.736786 
	C456.155701,279.520874 470.435822,275.235107 482.681793,266.106964 
	C486.911591,262.954102 489.224213,259.113190 489.109344,253.435669 
	C488.796234,237.963074 489.001648,222.479980 489.001678,207.001053 
	C489.001678,200.082108 489.001678,193.163177 489.001678,185.583633 
	C462.579834,201.262527 433.564148,206.303207 402.944153,211.728149 
	C405.850769,214.118683 407.645508,215.594727 409.937317,217.569702 
M466.866760,292.378143 
	C458.375671,295.142670 449.884583,297.907227 440.948669,300.816589 
	C440.948669,311.958008 440.948669,323.378204 440.948669,334.796295 
	C437.432831,335.944061 434.346802,337.404297 431.110199,337.920715 
	C422.416260,339.308014 416.746429,343.650818 415.005859,352.583160 
	C414.728180,354.008301 413.483429,355.258789 413.266998,356.678619 
	C412.972015,358.613922 412.618378,360.915070 413.370453,362.567627 
	C416.040436,368.434631 419.169128,374.092865 422.115997,379.814514 
	C420.895294,381.390137 419.827271,382.768677 418.759247,384.147247 
	C418.940613,384.553040 419.122009,384.958801 419.303406,385.364594 
	C431.682037,381.968658 444.297333,379.239716 456.362030,374.958984 
	C465.485291,371.721954 474.068726,366.795837 482.574249,362.051117 
	C487.324799,359.401031 489.299438,354.826416 489.110138,348.998505 
	C488.737488,337.527069 489.000366,326.034973 489.000366,314.551422 
	C489.000366,303.794342 489.000397,293.037262 489.000397,282.179718 
	C481.611786,285.600830 474.600433,288.847290 466.866760,292.378143 
M367.381134,269.141968 
	C347.490906,234.678696 308.236206,228.292328 289.256714,235.603271 
	C289.256714,240.732117 289.256714,245.831375 289.256714,251.017258 
	C315.430786,245.348190 337.005768,252.348831 351.766357,274.705505 
	C364.666901,294.244904 364.764648,315.224060 352.003937,334.885193 
	C337.278198,357.573944 315.601166,364.639374 289.239746,358.987946 
	C289.239746,364.328339 289.239746,369.580048 289.239746,374.780334 
	C298.058899,377.472534 309.487671,377.729614 319.549377,375.511200 
	C367.642120,364.907806 390.905548,313.908630 367.381134,269.141968 
M316.499176,168.999802 
	C322.605713,168.999802 328.712250,168.999802 334.787384,168.999802 
	C336.925934,175.590607 338.834198,181.777161 340.987671,187.877182 
	C341.478577,189.267776 342.566193,190.856918 343.816406,191.486740 
	C346.585846,192.881912 349.632812,193.726151 352.739258,194.857956 
	C352.739258,169.895447 352.739258,145.197433 352.739258,120.599564 
	C331.446564,120.599564 310.415192,120.599564 289.298370,120.599564 
	C289.298370,136.692566 289.298370,152.732681 289.298370,168.999802 
	C298.229706,168.999802 306.864563,168.999802 316.499176,168.999802 
M289.074829,441.746735 
	C289.074829,457.168457 289.074829,472.590210 289.074829,488.230682 
	C310.699310,488.230682 331.744110,488.230682 352.719299,488.230682 
	C352.719299,463.432831 352.719299,439.405334 352.719299,415.083038 
	C350.847321,415.805084 349.363922,416.653137 347.779419,416.937195 
	C342.832947,417.824066 340.811066,420.975037 339.696045,425.616943 
	C338.437164,430.857666 336.408630,435.913544 334.707214,441.072906 
	C319.404388,441.072906 304.584137,441.072906 289.074829,441.746735 
M68.362213,208.999283 
	C69.804214,208.923569 71.246208,208.847855 72.664474,208.773376 
	C72.664474,196.766357 72.664474,185.096619 72.664474,174.388733 
	C61.300224,185.724747 49.626629,197.369354 37.967705,208.999313 
	C47.516575,208.999313 57.451313,208.999313 68.362213,208.999283 
z"/>
<path fill="#E6E9ED" opacity="1.000000" stroke="none" 
	d="
M89.001526,179.000961 
	C89.001526,172.859299 89.001526,167.217316 89.001526,161.289368 
	C104.968552,161.289368 120.701973,161.289368 136.717804,161.289368 
	C136.717804,235.639633 136.717804,310.026703 136.717804,384.706299 
	C99.709579,384.706299 62.647736,384.706299 25.293343,384.706299 
	C25.293343,331.711853 25.293343,278.653473 25.293343,225.183472 
	C46.282955,225.183472 67.351349,225.183472 89.001526,225.183472 
	C89.001526,209.686783 89.001526,194.593704 89.001526,179.000961 
M63.500050,369.000000 
	C82.589798,369.000000 101.679550,369.000000 120.710526,369.000000 
	C120.710526,347.358429 120.710526,326.294678 120.710526,305.288208 
	C94.024734,305.288208 67.629433,305.288208 41.289421,305.288208 
	C41.289421,326.641449 41.289421,347.705200 41.289421,369.000000 
	C48.551029,369.000000 55.525574,369.000000 63.500050,369.000000 
M43.687599,256.999603 
	C69.423866,256.999603 95.160141,256.999603 120.640709,256.999603 
	C120.640709,251.220108 120.640709,246.145996 120.640709,241.356628 
	C93.884361,241.356628 67.488052,241.356628 41.000404,241.356628 
	C41.000404,245.873611 40.895939,250.038864 41.078865,254.191422 
	C41.121006,255.148102 42.148521,256.061371 43.687599,256.999603 
M50.534752,273.000000 
	C47.428947,273.000000 44.323143,273.000000 41.290390,273.000000 
	C41.290390,278.638062 41.290390,283.706360 41.290390,288.715668 
	C67.974457,288.715668 94.367134,288.715668 120.707779,288.715668 
	C120.707779,283.358307 120.707779,278.289978 120.707779,273.000000 
	C97.452148,273.000000 74.488007,273.000000 50.534752,273.000000 
M112.516960,177.000000 
	C110.086739,177.000000 107.656517,177.000000 105.289673,177.000000 
	C105.289673,182.643845 105.289673,187.709503 105.289673,192.707428 
	C110.649567,192.707428 115.715355,192.707428 120.704422,192.707428 
	C120.704422,187.343094 120.704422,182.277756 120.704422,177.000000 
	C118.101486,177.000000 115.792282,177.000000 112.516960,177.000000 
M120.999550,222.320633 
	C120.999550,217.908218 120.999550,213.495804 120.999550,209.356964 
	C115.216499,209.356964 110.144394,209.356964 105.360397,209.356964 
	C105.360397,214.790466 105.360397,219.862213 105.360397,224.999619 
	C109.878326,224.999619 114.040680,225.103836 118.190430,224.921371 
	C119.147308,224.879272 120.060997,223.854828 120.999550,222.320633 
z"/>
<path fill="#FDE8A6" opacity="1.000000" stroke="none" 
	d="
M277.538025,103.415100 
	C248.129471,101.366852 219.440445,97.610718 191.681473,88.903564 
	C181.925781,85.843498 172.639359,81.228401 163.274170,77.021652 
	C160.771820,75.897614 158.559860,73.870674 156.578857,71.893326 
	C151.765808,67.089195 151.272461,62.153225 156.709854,58.229275 
	C163.890594,53.047203 171.726578,48.327744 179.947418,45.114883 
	C205.701614,35.049664 232.860077,30.909153 260.204315,28.046246 
	C292.403687,24.675014 324.690765,24.072887 356.997192,26.046408 
	C391.949524,28.181561 426.632507,32.261230 459.815399,44.212196 
	C467.849518,47.105724 475.670898,51.175499 482.770233,55.928837 
	C491.387573,61.698601 491.117523,67.980995 482.753693,74.269150 
	C470.123138,83.765167 455.212494,88.137772 440.215363,91.882210 
	C392.652405,103.757561 344.234222,106.268105 295.460632,104.378922 
	C289.638092,104.153397 283.821411,103.776772 277.538025,103.415100 
M228.625381,88.300117 
	C230.094925,88.531212 231.564346,88.963554 233.034027,88.964409 
	C291.659210,88.998528 350.284454,89.029488 408.909576,88.955727 
	C417.934265,88.944374 424.698059,82.155220 424.957550,73.218285 
	C425.117004,67.726852 425.120270,62.222977 424.955292,56.731853 
	C424.686890,47.800159 417.908173,41.051231 408.867889,41.040615 
	C350.242737,40.971790 291.617432,40.968063 232.992340,41.045063 
	C223.976974,41.056904 217.274078,47.886559 217.031387,56.860771 
	C216.896362,61.853619 217.029068,66.853203 216.998016,71.849472 
	C216.949112,79.716042 220.510071,85.146866 228.625381,88.300117 
z"/>
<path fill="#FBD670" opacity="1.000000" stroke="none" 
	d="
M153.000244,418.000000 
	C153.000244,404.393127 153.000244,391.286224 153.000244,377.323669 
	C171.345520,388.597351 190.979660,394.577789 211.188004,398.399017 
	C231.416885,402.224121 251.861450,404.908569 272.674683,408.165527 
	C272.674683,433.749329 272.674683,460.279175 272.674683,487.190613 
	C236.880997,483.474182 201.421326,479.417236 168.474792,463.968475 
	C165.929413,462.774933 163.540176,461.223114 161.157394,459.713074 
	C155.399292,456.064148 152.339005,451.283783 152.860397,443.961975 
	C153.461975,435.514160 153.000244,426.990631 153.000244,418.000000 
z"/>
<path fill="#FBD670" opacity="1.000000" stroke="none" 
	d="
M202.857971,284.126495 
	C190.629990,279.729797 178.750046,275.553131 167.017151,270.997681 
	C163.990326,269.822479 161.353470,267.557098 158.665283,265.615540 
	C154.624405,262.696960 152.858032,258.859528 152.907990,253.653488 
	C153.123550,231.189423 153.000183,208.722107 153.000183,185.673309 
	C190.410919,206.527054 231.517624,210.897339 272.777222,215.353638 
	C272.777222,241.885666 272.777222,268.281921 272.777222,295.062622 
	C249.166214,293.108765 225.993973,290.109558 202.857971,284.126495 
z"/>
<path fill="#FBD670" opacity="1.000000" stroke="none" 
	d="
M212.538193,382.469818 
	C196.547562,378.834625 181.187210,374.636780 166.976242,367.067627 
	C164.781891,365.898834 162.696136,364.516052 160.610733,363.154785 
	C155.197906,359.621613 152.731506,354.983246 152.854080,348.138580 
	C153.247238,326.183746 153.000229,304.217407 153.000229,281.685120 
	C190.318130,302.472992 231.265030,306.870361 272.618988,311.331573 
	C272.618988,337.665863 272.618988,364.174927 272.618988,392.038544 
	C252.548828,388.864197 232.743591,385.731750 212.538193,382.469818 
z"/>
<path fill="#FBD670" opacity="1.000000" stroke="none" 
	d="
M265.520355,198.392273 
	C236.002304,195.636017 207.228836,191.314590 179.820999,180.788666 
	C172.458069,177.960953 165.601120,173.683838 158.783295,169.617096 
	C154.541016,167.086639 152.857590,162.979858 152.907913,157.749863 
	C153.124084,135.283051 153.000183,112.812958 153.000183,89.849915 
	C190.319183,110.776894 231.344757,114.951538 272.668182,119.381737 
	C272.668182,145.663483 272.668182,172.064484 272.668182,199.016006 
	C270.452545,198.830276 268.211456,198.642426 265.520355,198.392273 
z"/>
<path fill="#FBD670" opacity="1.000000" stroke="none" 
	d="
M487.724365,90.205307 
	C488.405518,91.560112 488.957336,93.059433 488.961426,94.560242 
	C489.018188,115.368858 488.812897,136.180450 489.119812,156.984695 
	C489.205963,162.824524 487.294586,167.294708 482.586975,170.035767 
	C475.161835,174.359116 467.634613,178.762161 459.647858,181.816910 
	C437.943817,190.118103 415.111694,193.831818 392.167633,196.756241 
	C390.682129,196.945572 388.678467,196.018433 387.488495,194.964233 
	C385.013367,192.771606 382.922516,190.145157 380.600708,187.617493 
	C376.595490,189.573181 373.086121,191.286743 369.217041,193.175949 
	C369.217041,168.318924 369.217041,143.952560 369.217041,119.652794 
	C384.030640,117.752739 398.715149,116.203804 413.284943,113.922066 
	C435.155548,110.496964 456.694427,105.640144 476.869812,96.097496 
	C480.462372,94.398262 483.855255,92.276932 487.724365,90.205307 
z"/>
<path fill="#FBD670" opacity="1.000000" stroke="none" 
	d="
M404.976379,482.987854 
	C392.867096,484.472870 381.194214,485.918732 369.221985,487.401672 
	C369.221985,463.584930 369.221985,440.484680 369.221985,416.777771 
	C372.932007,418.611420 376.428162,420.339386 380.494995,422.349365 
	C385.576813,417.106293 390.563934,411.758484 395.812042,406.680359 
	C397.228119,405.310120 399.350616,404.221405 401.293457,403.912292 
	C425.461670,400.067352 449.515869,395.780365 472.211243,386.135956 
	C477.687347,383.808868 482.924133,380.918732 488.697845,378.077515 
	C488.797668,379.425171 488.985657,380.789276 488.986877,382.153564 
	C489.005493,403.310791 488.856232,424.469666 489.096008,445.624176 
	C489.159790,451.252533 487.005310,455.126251 482.699219,458.315094 
	C472.071228,466.185608 459.854614,470.616364 447.294739,473.842010 
	C433.466553,477.393402 419.384338,479.955597 404.976379,482.987854 
z"/>
<path fill="#9FD267" opacity="1.000000" stroke="none" 
	d="
M328.434998,408.482727 
	C326.426666,414.158508 326.010071,421.243774 322.294159,424.247498 
	C319.038483,426.879242 312.078308,424.958374 306.754181,424.992981 
	C301.093384,425.029816 295.432159,425.001312 289.385376,425.001312 
	C289.385376,413.985321 289.385376,403.106506 289.385376,391.886627 
	C320.848999,396.189423 348.124969,387.682281 369.871918,364.234467 
	C386.514771,346.289856 394.150146,324.626251 392.850128,300.194366 
	C390.050842,247.584824 341.288605,208.603424 289.321838,218.105469 
	C289.321838,207.297440 289.321838,196.538528 289.321838,184.998642 
	C296.362000,184.998642 303.610046,184.998642 310.858063,184.998642 
	C323.229401,184.998642 323.507721,184.921204 326.866211,196.992416 
	C328.276642,202.061890 330.778717,204.483673 335.798248,206.027878 
	C342.741241,208.163773 349.235107,211.721085 356.061310,214.298904 
	C358.065338,215.055664 360.799194,215.232819 362.755432,214.497177 
	C367.682800,212.644226 372.755951,207.787094 377.022491,208.515625 
	C381.353790,209.255234 384.817902,215.212341 388.608917,218.938232 
	C392.530273,222.792221 396.289307,226.817245 400.316101,230.555496 
	C402.278992,232.377701 402.677307,234.043228 401.069153,236.116455 
	C394.015350,245.210114 393.488556,254.230225 400.260529,263.965118 
	C402.734283,267.521118 403.758850,272.225677 404.852966,276.555756 
	C405.700653,279.910706 407.323639,281.627838 410.677002,282.284119 
	C413.266907,282.790955 415.689301,284.299866 418.279541,284.629517 
	C424.217255,285.385254 425.472839,288.623108 425.136230,294.163696 
	C424.621796,302.630554 424.918610,311.152954 425.051483,319.648987 
	C425.091248,322.190796 424.553650,323.785034 421.770813,324.164124 
	C410.283966,325.728638 402.948883,331.609222 401.355713,343.654175 
	C401.104065,345.556702 400.204712,347.613892 398.997498,349.109253 
	C392.883484,356.682648 394.290894,363.940399 399.681000,371.014984 
	C402.983643,375.349640 401.909882,378.363403 398.017731,381.843658 
	C391.692902,387.499084 385.843964,393.698181 379.950928,399.818695 
	C377.951721,401.895050 376.163422,402.923492 373.610535,400.944061 
	C364.671570,394.013062 355.818909,393.587036 346.207550,400.154388 
	C342.365204,402.779785 337.189850,403.406799 332.715668,405.181396 
	C331.192719,405.785431 329.958923,407.118530 328.434998,408.482727 
z"/>
<path fill="#FBD66F" opacity="1.000000" stroke="none" 
	d="
M409.688782,217.320251 
	C407.645508,215.594727 405.850769,214.118683 402.944153,211.728149 
	C433.564148,206.303207 462.579834,201.262527 489.001678,185.583633 
	C489.001678,193.163177 489.001678,200.082108 489.001678,207.001053 
	C489.001648,222.479980 488.796234,237.963074 489.109344,253.435669 
	C489.224213,259.113190 486.911591,262.954102 482.681793,266.106964 
	C470.435822,275.235107 456.155701,279.520874 441.251770,283.736786 
	C441.251770,280.786346 441.251770,278.235657 441.251770,275.297150 
	C435.209656,273.352966 429.419830,271.489655 423.629822,269.627106 
	C422.839935,269.373016 422.029755,269.170288 421.261841,268.861938 
	C418.030670,267.564423 411.640747,250.609344 413.231140,247.479462 
	C415.638184,242.742554 417.899170,237.913116 420.620758,233.361267 
	C422.255981,230.626282 421.685272,229.008469 419.518768,227.050064 
	C416.189117,224.040222 413.118073,220.744278 409.688782,217.320251 
z"/>
<path fill="#FBD66F" opacity="1.000000" stroke="none" 
	d="
M467.227936,292.235931 
	C474.600433,288.847290 481.611786,285.600830 489.000397,282.179718 
	C489.000397,293.037262 489.000366,303.794342 489.000366,314.551422 
	C489.000366,326.034973 488.737488,337.527069 489.110138,348.998505 
	C489.299438,354.826416 487.324799,359.401031 482.574249,362.051117 
	C474.068726,366.795837 465.485291,371.721954 456.362030,374.958984 
	C444.297333,379.239716 431.682037,381.968658 419.303406,385.364594 
	C419.122009,384.958801 418.940613,384.553040 418.759247,384.147247 
	C419.827271,382.768677 420.895294,381.390137 422.115997,379.814514 
	C419.169128,374.092865 416.040436,368.434631 413.370453,362.567627 
	C412.618378,360.915070 412.972015,358.613922 413.266998,356.678619 
	C413.483429,355.258789 414.728180,354.008301 415.005859,352.583160 
	C416.746429,343.650818 422.416260,339.308014 431.110199,337.920715 
	C434.346802,337.404297 437.432831,335.944061 440.948669,334.796295 
	C440.948669,323.378204 440.948669,311.958008 440.948669,300.816589 
	C449.884583,297.907227 458.375671,295.142670 467.227936,292.235931 
z"/>
<path fill="#B1DA7D" opacity="1.000000" stroke="none" 
	d="
M367.585754,269.448547 
	C390.905548,313.908630 367.642120,364.907806 319.549377,375.511200 
	C309.487671,377.729614 298.058899,377.472534 289.239746,374.780334 
	C289.239746,369.580048 289.239746,364.328339 289.239746,358.987946 
	C315.601166,364.639374 337.278198,357.573944 352.003937,334.885193 
	C364.764648,315.224060 364.666901,294.244904 351.766357,274.705505 
	C337.005768,252.348831 315.430786,245.348190 289.256714,251.017258 
	C289.256714,245.831375 289.256714,240.732117 289.256714,235.603271 
	C308.236206,228.292328 347.490906,234.678696 367.585754,269.448547 
z"/>
<path fill="#FEE9A7" opacity="1.000000" stroke="none" 
	d="
M315.999268,168.999802 
	C306.864563,168.999802 298.229706,168.999802 289.298370,168.999802 
	C289.298370,152.732681 289.298370,136.692566 289.298370,120.599564 
	C310.415192,120.599564 331.446564,120.599564 352.739258,120.599564 
	C352.739258,145.197433 352.739258,169.895447 352.739258,194.857956 
	C349.632812,193.726151 346.585846,192.881912 343.816406,191.486740 
	C342.566193,190.856918 341.478577,189.267776 340.987671,187.877182 
	C338.834198,181.777161 336.925934,175.590607 334.787384,168.999802 
	C328.712250,168.999802 322.605713,168.999802 315.999268,168.999802 
z"/>
<path fill="#FEE9A6" opacity="1.000000" stroke="none" 
	d="
M289.419373,441.409821 
	C304.584137,441.072906 319.404388,441.072906 334.707214,441.072906 
	C336.408630,435.913544 338.437164,430.857666 339.696045,425.616943 
	C340.811066,420.975037 342.832947,417.824066 347.779419,416.937195 
	C349.363922,416.653137 350.847321,415.805084 352.719299,415.083038 
	C352.719299,439.405334 352.719299,463.432831 352.719299,488.230682 
	C331.744110,488.230682 310.699310,488.230682 289.074829,488.230682 
	C289.074829,472.590210 289.074829,457.168457 289.419373,441.409821 
z"/>
<path fill="#FE826E" opacity="1.000000" stroke="none" 
	d="
M67.874130,208.999298 
	C57.451313,208.999313 47.516575,208.999313 37.967705,208.999313 
	C49.626629,197.369354 61.300224,185.724747 72.664474,174.388733 
	C72.664474,185.096619 72.664474,196.766357 72.664474,208.773376 
	C71.246208,208.847855 69.804214,208.923569 67.874130,208.999298 
z"/>
<path fill="#000000" opacity="1.000000" stroke="none" 
	d="
M63.000084,369.000000 
	C55.525574,369.000000 48.551029,369.000000 41.289421,369.000000 
	C41.289421,347.705200 41.289421,326.641449 41.289421,305.288208 
	C67.629433,305.288208 94.024734,305.288208 120.710526,305.288208 
	C120.710526,326.294678 120.710526,347.358429 120.710526,369.000000 
	C101.679550,369.000000 82.589798,369.000000 63.000084,369.000000 
M104.893013,352.226074 
	C104.893013,341.963928 104.893013,331.701752 104.893013,321.221985 
	C88.855385,321.221985 73.152634,321.221985 57.228039,321.221985 
	C57.228039,331.814178 57.228039,342.192230 57.228039,352.895905 
	C73.037888,352.895905 88.622375,352.895905 104.893013,352.226074 
z"/>
<path fill="#000000" opacity="1.000000" stroke="none" 
	d="
M43.205086,256.997131 
	C42.148521,256.061371 41.121006,255.148102 41.078865,254.191422 
	C40.895939,250.038864 41.000404,245.873611 41.000404,241.356628 
	C67.488052,241.356628 93.884361,241.356628 120.640709,241.356628 
	C120.640709,246.145996 120.640709,251.220108 120.640709,256.999603 
	C95.160141,256.999603 69.423866,256.999603 43.205086,256.997131 
z"/>
<path fill="#000000" opacity="1.000000" stroke="none" 
	d="
M51.029305,273.000000 
	C74.488007,273.000000 97.452148,273.000000 120.707779,273.000000 
	C120.707779,278.289978 120.707779,283.358307 120.707779,288.715668 
	C94.367134,288.715668 67.974457,288.715668 41.290390,288.715668 
	C41.290390,283.706360 41.290390,278.638062 41.290390,273.000000 
	C44.323143,273.000000 47.428947,273.000000 51.029305,273.000000 
z"/>
<path fill="#000000" opacity="1.000000" stroke="none" 
	d="
M113.000015,177.000000 
	C115.792282,177.000000 118.101486,177.000000 120.704422,177.000000 
	C120.704422,182.277756 120.704422,187.343094 120.704422,192.707428 
	C115.715355,192.707428 110.649567,192.707428 105.289673,192.707428 
	C105.289673,187.709503 105.289673,182.643845 105.289673,177.000000 
	C107.656517,177.000000 110.086739,177.000000 113.000015,177.000000 
z"/>
<path fill="#000000" opacity="1.000000" stroke="none" 
	d="
M120.997055,222.801544 
	C120.060997,223.854828 119.147308,224.879272 118.190430,224.921371 
	C114.040680,225.103836 109.878326,224.999619 105.360397,224.999619 
	C105.360397,219.862213 105.360397,214.790466 105.360397,209.356964 
	C110.144394,209.356964 115.216499,209.356964 120.999550,209.356964 
	C120.999550,213.495804 120.999550,217.908218 120.997055,222.801544 
z"/>
<path fill="#010100" opacity="1.000000" stroke="none" 
	d="
M228.232178,88.185699 
	C220.510071,85.146866 216.949112,79.716042 216.998016,71.849472 
	C217.029068,66.853203 216.896362,61.853619 217.031387,56.860771 
	C217.274078,47.886559 223.976974,41.056904 232.992340,41.045063 
	C291.617432,40.968063 350.242737,40.971790 408.867889,41.040615 
	C417.908173,41.051231 424.686890,47.800159 424.955292,56.731853 
	C425.120270,62.222977 425.117004,67.726852 424.957550,73.218285 
	C424.698059,82.155220 417.934265,88.944374 408.909576,88.955727 
	C350.284454,89.029488 291.659210,88.998528 233.034027,88.964409 
	C231.564346,88.963554 230.094925,88.531212 228.232178,88.185699 
M283.500000,57.001362 
	C266.754730,57.001362 250.009460,57.001362 233.343719,57.001362 
	C233.343719,62.685318 233.343719,67.744568 233.343719,72.689026 
	C292.034271,72.689026 350.381897,72.689026 408.656860,72.689026 
	C408.656860,67.315247 408.656860,62.256020 408.656860,57.001362 
	C367.043182,57.001362 325.771576,57.001362 283.500000,57.001362 
z"/>
<path fill="#B4DD7F" opacity="1.000000" stroke="none" 
	d="
M104.549942,352.560974 
	C88.622375,352.895905 73.037888,352.895905 57.228039,352.895905 
	C57.228039,342.192230 57.228039,331.814178 57.228039,321.221985 
	C73.152634,321.221985 88.855385,321.221985 104.893013,321.221985 
	C104.893013,331.701752 104.893013,341.963928 104.549942,352.560974 
z"/>
<path fill="#FF826E" opacity="1.000000" stroke="none" 
	d="
M284.000000,57.001362 
	C325.771576,57.001362 367.043182,57.001362 408.656860,57.001362 
	C408.656860,62.256020 408.656860,67.315247 408.656860,72.689026 
	C350.381897,72.689026 292.034271,72.689026 233.343719,72.689026 
	C233.343719,67.744568 233.343719,62.685318 233.343719,57.001362 
	C250.009460,57.001362 266.754730,57.001362 284.000000,57.001362 
z"/>
</svg>