<svg version="1.1" id="Layer_1" xmlns="http://www.w3.org/2000/svg" xmlns:xlink="http://www.w3.org/1999/xlink" x="0px" y="0px"
	 width="100%" viewBox="0 0 512 512" enable-background="new 0 0 512 512" xml:space="preserve">
<path fill="#000000" opacity="1.000000" stroke="none" 
	d="
M1.000000,189.000000 
	C1.000000,126.000000 1.000000,63.500000 1.000000,1.000000 
	C171.666672,1.000000 342.333344,1.000000 513.000000,1.000000 
	C513.000000,171.666672 513.000000,342.333344 513.000000,513.000000 
	C342.333344,513.000000 171.666672,513.000000 1.000000,513.000000 
	C1.000000,405.166656 1.000000,297.333344 1.000000,189.000000 
M139.500641,297.000275 
	C172.490204,297.000275 205.479752,296.993164 238.469315,297.003326 
	C255.380157,297.008545 264.979919,306.692352 264.998352,323.732758 
	C265.006470,331.230377 264.816101,338.733734 265.048828,346.224121 
	C265.307037,354.534424 264.748199,362.530975 258.892273,368.904236 
	C267.633209,381.340698 267.633118,419.723358 258.982544,433.279236 
	C265.204437,439.871704 265.363983,448.358551 264.939148,457.000275 
	C267.115631,457.000275 268.599243,457.000275 270.082825,457.000275 
	C339.227661,457.000275 408.372498,457.001434 477.517334,456.998932 
	C486.697632,456.998627 488.998657,454.696075 488.998840,445.505981 
	C489.001038,333.707947 489.000275,221.909897 489.000275,110.111855 
	C489.000275,108.504730 489.000275,106.897614 489.000275,104.999519 
	C470.525146,104.999519 452.562378,105.027260 434.599731,104.991119 
	C419.056274,104.959846 409.037750,94.909431 409.007690,79.332695 
	C408.975525,62.671356 409.006165,46.009892 408.989838,29.348503 
	C408.988434,27.926395 408.839813,26.504433 408.761536,25.117558 
	C407.807251,25.061085 407.313446,25.006283 406.819611,25.006256 
	C314.848633,25.001535 222.877686,24.995285 130.906723,25.010162 
	C123.646423,25.011337 121.005020,27.862883 121.004356,35.558395 
	C120.996994,121.364632 120.998627,207.170868 121.010002,292.977112 
	C121.010170,294.247772 121.165237,295.518433 121.261765,297.000275 
	C127.216438,297.000275 132.858856,297.000275 139.500641,297.000275 
M159.500000,440.999756 
	C118.034485,440.999756 76.568962,440.990540 35.103458,441.008423 
	C27.847498,441.011536 25.042992,443.758575 25.010559,450.861542 
	C24.967216,460.353424 24.960299,469.845917 25.013462,479.337738 
	C25.051538,486.135651 27.922251,488.986115 34.809223,488.988129 
	C102.919243,489.008026 171.029266,489.008057 239.139297,488.988464 
	C246.225540,488.986450 248.964981,486.133850 248.991974,478.882629 
	C249.026093,469.723694 249.019165,460.564514 248.994415,451.405548 
	C248.973404,443.639557 246.308441,441.008942 238.435196,441.004852 
	C212.456802,440.991302 186.478394,440.999756 159.500000,440.999756 
M237.304337,425.000244 
	C246.822235,424.964081 248.995667,422.777679 248.999466,413.218750 
	C249.003036,404.225403 249.058395,395.231537 248.979004,386.238892 
	C248.924225,380.032654 245.962433,377.023743 239.764923,377.020813 
	C171.315598,376.988617 102.866241,376.989746 34.416908,377.017731 
	C27.933014,377.020386 25.056965,379.989410 25.014669,386.550385 
	C24.956696,395.543365 24.995319,404.536957 25.000969,413.530304 
	C25.006729,422.700897 27.306267,424.998474 36.500614,424.998810 
	C103.117981,425.001404 169.735352,425.000244 237.304337,425.000244 
M34.842285,361.000214 
	C102.631065,361.000244 170.419846,361.003204 238.208633,360.996368 
	C246.407669,360.995514 248.980225,358.438324 248.996140,350.311462 
	C249.014069,341.150848 249.034576,331.989990 248.988922,322.829590 
	C248.954529,315.926056 246.142105,313.016266 239.355194,313.014008 
	C171.066788,312.991150 102.778374,312.990204 34.489986,313.016388 
	C27.967886,313.018890 25.057949,315.961700 25.016294,322.478577 
	C24.954550,332.138489 24.958643,341.799347 25.015038,351.459320 
	C25.052105,357.808838 27.427937,360.277710 34.842285,361.000214 
M471.091736,82.419121 
	C456.013824,67.295883 440.935883,52.172642 424.997681,36.186523 
	C424.997681,51.366684 424.968750,65.263138 425.009735,79.159378 
	C425.030609,86.235550 427.859772,88.972458 435.102203,88.993904 
	C446.076630,89.026398 457.051239,89.002457 468.025757,89.002480 
	C470.912689,89.002487 473.799591,89.002480 476.686523,89.002480 
	C476.863861,88.582420 477.041199,88.162361 477.218567,87.742302 
	C475.343933,86.135269 473.469299,84.528244 471.091736,82.419121 
z"/>
<path fill="#E6E9ED" opacity="1.000000" stroke="none" 
	d="
M139.000946,297.000275 
	C132.858856,297.000275 127.216438,297.000275 121.261765,297.000275 
	C121.165237,295.518433 121.010170,294.247772 121.010002,292.977112 
	C120.998627,207.170868 120.996994,121.364632 121.004356,35.558395 
	C121.005020,27.862883 123.646423,25.011337 130.906723,25.010162 
	C222.877686,24.995285 314.848633,25.001535 406.819611,25.006256 
	C407.313446,25.006283 407.807251,25.061085 408.761536,25.117558 
	C408.839813,26.504433 408.988434,27.926395 408.989838,29.348503 
	C409.006165,46.009892 408.975525,62.671356 409.007690,79.332695 
	C409.037750,94.909431 419.056274,104.959846 434.599731,104.991119 
	C452.562378,105.027260 470.525146,104.999519 489.000275,104.999519 
	C489.000275,106.897614 489.000275,108.504730 489.000275,110.111855 
	C489.000275,221.909897 489.001038,333.707947 488.998840,445.505981 
	C488.998657,454.696075 486.697632,456.998627 477.517334,456.998932 
	C408.372498,457.001434 339.227661,457.000275 270.082825,457.000275 
	C268.599243,457.000275 267.115631,457.000275 264.939148,457.000275 
	C265.363983,448.358551 265.204437,439.871704 258.982544,433.279236 
	C267.633118,419.723358 267.633209,381.340698 258.892273,368.904236 
	C264.748199,362.530975 265.307037,354.534424 265.048828,346.224121 
	C264.816101,338.733734 265.006470,331.230377 264.998352,323.732758 
	C264.979919,306.692352 255.380157,297.008545 238.469315,297.003326 
	C205.479752,296.993164 172.490204,297.000275 139.000946,297.000275 
M442.501282,153.000458 
	C436.739197,153.000458 430.977112,153.000458 424.816650,153.000458 
	C424.816650,169.320389 424.816650,185.056412 424.816650,200.695541 
	C419.333618,200.695541 414.264404,200.695541 408.796021,200.695541 
	C408.796021,179.327133 408.796021,158.261322 408.796021,137.309265 
	C392.654877,137.309265 376.922729,137.309265 360.783569,137.309265 
	C360.783569,148.019745 360.783569,158.426056 360.783569,169.228943 
	C349.969238,169.228943 339.562897,169.228943 329.313599,169.228943 
	C329.313599,206.699783 329.313599,243.757507 329.313599,280.699036 
	C377.347961,280.699036 425.068573,280.699036 472.708954,280.699036 
	C472.708954,238.008820 472.708954,195.619797 472.708954,153.000458 
	C462.780151,153.000458 453.140411,153.000458 442.501282,153.000458 
M321.527069,402.934540 
	C338.088501,432.418396 369.624725,446.552979 401.947174,438.979004 
	C439.331970,430.218750 463.785431,391.526031 455.464325,354.298798 
	C446.742706,315.279816 409.298126,290.427948 371.078979,298.292450 
	C323.756470,308.030182 299.680634,358.174408 321.527069,402.934540 
M252.500000,41.000477 
	C214.079910,41.000477 175.659836,41.000477 137.292542,41.000477 
	C137.292542,57.307018 137.292542,73.040901 137.292542,88.714043 
	C195.976196,88.714043 254.367325,88.714043 312.707520,88.714043 
	C312.707520,72.692978 312.707520,56.959160 312.707520,41.000477 
	C292.777588,41.000477 273.138794,41.000477 252.500000,41.000477 
M172.500000,120.999527 
	C219.250366,120.999527 266.000732,120.999527 312.709534,120.999527 
	C312.709534,115.364899 312.709534,110.295845 312.709534,105.280762 
	C254.029434,105.280762 195.639816,105.280762 137.290436,105.280762 
	C137.290436,110.636383 137.290436,115.705711 137.290436,120.999527 
	C148.886124,120.999527 160.193069,120.999527 172.500000,120.999527 
M191.500000,233.000458 
	C173.408157,233.000458 155.316315,233.000458 137.300720,233.000458 
	C137.300720,238.657043 137.300720,243.725845 137.300720,248.709076 
	C195.991089,248.709076 254.380768,248.709076 312.699341,248.709076 
	C312.699341,243.344666 312.699341,238.275299 312.699341,233.000458 
	C272.433014,233.000458 232.466507,233.000458 191.500000,233.000458 
M277.500000,216.999542 
	C289.261169,216.999542 301.022369,216.999542 312.697021,216.999542 
	C312.697021,211.339996 312.697021,206.270569 312.697021,201.293182 
	C254.004349,201.293182 195.614670,201.293182 137.302917,201.293182 
	C137.302917,206.661484 137.302917,211.730240 137.302917,216.999542 
	C183.903381,216.999542 230.201691,216.999542 277.500000,216.999542 
M182.500000,265.000427 
	C167.407761,265.000427 152.315521,265.000427 137.300323,265.000427 
	C137.300323,270.655151 137.300323,275.724274 137.300323,280.709106 
	C185.324036,280.709106 233.047333,280.709106 280.699768,280.709106 
	C280.699768,275.343414 280.699768,270.274841 280.699768,265.000427 
	C248.100266,265.000427 215.800125,265.000427 182.500000,265.000427 
M279.500000,169.000458 
	C242.748856,169.000458 205.997711,169.000458 169.291016,169.000458 
	C169.291016,174.636658 169.291016,179.705505 169.291016,184.718353 
	C217.305359,184.718353 265.028595,184.718353 312.709045,184.718353 
	C312.709045,179.362091 312.709045,174.293076 312.709045,169.000458 
	C301.780090,169.000458 291.140045,169.000458 279.500000,169.000458 
M188.500000,152.999542 
	C219.253098,152.999542 250.006210,152.999542 280.706421,152.999542 
	C280.706421,147.358246 280.706421,142.289337 280.706421,137.284210 
	C232.689468,137.284210 184.966202,137.284210 137.293518,137.284210 
	C137.293518,142.641632 137.293518,147.710541 137.293518,152.999542 
	C154.223724,152.999542 170.861862,152.999542 188.500000,152.999542 
M297.000458,148.393692 
	C297.000458,149.832047 297.000458,151.270401 297.000458,152.740677 
	C302.583191,152.740677 307.647980,152.740677 312.738464,152.740677 
	C312.738464,147.412399 312.738464,142.347382 312.738464,137.263809 
	C307.408173,137.263809 302.343109,137.263809 297.000427,137.263809 
	C297.000427,140.822708 297.000427,144.121567 297.000458,148.393692 
M137.000931,171.679749 
	C137.000931,176.091873 137.000931,180.503983 137.000931,184.642563 
	C142.783661,184.642563 147.855423,184.642563 152.639130,184.642563 
	C152.639130,179.209351 152.639130,174.137115 152.639130,169.000870 
	C148.121613,169.000870 143.959473,168.896637 139.809921,169.079102 
	C138.853088,169.121185 137.939453,170.145615 137.000931,171.679749 
M297.068848,265.739563 
	C297.068848,270.689606 297.068848,275.639648 297.068848,280.790314 
	C302.457825,280.790314 307.522614,280.790314 312.793732,280.790314 
	C312.793732,275.535034 312.793732,270.470245 312.793732,265.067078 
	C307.653595,265.067078 302.704987,265.067078 297.068848,265.739563 
z"/>
<path fill="#FCD770" opacity="1.000000" stroke="none" 
	d="
M160.000000,440.999756 
	C186.478394,440.999756 212.456802,440.991302 238.435196,441.004852 
	C246.308441,441.008942 248.973404,443.639557 248.994415,451.405548 
	C249.019165,460.564514 249.026093,469.723694 248.991974,478.882629 
	C248.964981,486.133850 246.225540,488.986450 239.139297,488.988464 
	C171.029266,489.008057 102.919243,489.008026 34.809223,488.988129 
	C27.922251,488.986115 25.051538,486.135651 25.013462,479.337738 
	C24.960299,469.845917 24.967216,460.353424 25.010559,450.861542 
	C25.042992,443.758575 27.847498,441.011536 35.103458,441.008423 
	C76.568962,440.990540 118.034485,440.999756 160.000000,440.999756 
M112.517715,457.000427 
	C110.093674,457.000427 107.669640,457.000427 105.299400,457.000427 
	C105.299400,462.651672 105.299400,467.703918 105.299400,472.697815 
	C110.657341,472.697815 115.709503,472.697815 120.694839,472.697815 
	C120.694839,467.338898 120.694839,462.286102 120.694839,457.000427 
	C118.088852,457.000427 115.785530,457.000427 112.517715,457.000427 
M88.999512,468.383789 
	C88.999512,464.641205 88.999512,460.898621 88.999512,457.341919 
	C83.261757,457.341919 78.205948,457.341919 73.345139,457.341919 
	C73.345139,462.745026 73.345139,467.801270 73.345139,472.999207 
	C77.663635,472.999207 81.651871,472.797852 85.608589,473.064362 
	C88.648048,473.269073 89.386765,471.967987 88.999512,468.383789 
M56.999420,460.654907 
	C56.202450,459.437866 55.486301,457.242859 54.594833,457.169220 
	C50.195644,456.805634 45.750023,457.003815 41.259762,457.003815 
	C41.259762,462.569061 41.259762,467.621826 41.259762,472.737183 
	C46.575542,472.737183 51.628334,472.737183 56.999504,472.737183 
	C56.999504,468.860321 56.999504,465.238281 56.999420,460.654907 
z"/>
<path fill="#FCD770" opacity="1.000000" stroke="none" 
	d="
M236.828522,425.000244 
	C169.735352,425.000244 103.117981,425.001404 36.500614,424.998810 
	C27.306267,424.998474 25.006729,422.700897 25.000969,413.530304 
	C24.995319,404.536957 24.956696,395.543365 25.014669,386.550385 
	C25.056965,379.989410 27.933014,377.020386 34.416908,377.017731 
	C102.866241,376.989746 171.315598,376.988617 239.764923,377.020813 
	C245.962433,377.023743 248.924225,380.032654 248.979004,386.238892 
	C249.058395,395.231537 249.003036,404.225403 248.999466,413.218750 
	C248.995667,422.777679 246.822235,424.964081 236.828522,425.000244 
M220.654938,393.000549 
	C219.437897,393.797516 217.242905,394.513672 217.169235,395.405121 
	C216.805664,399.804321 217.003830,404.249939 217.003830,408.740295 
	C222.569351,408.740295 227.621902,408.740295 232.737152,408.740295 
	C232.737152,403.424530 232.737152,398.371704 232.737152,393.000427 
	C228.857971,393.000427 225.237091,393.000427 220.654938,393.000549 
M185.001419,406.311981 
	C185.788132,407.206635 186.532471,408.825806 187.368668,408.874725 
	C191.785355,409.133057 196.225174,408.995911 200.751801,408.995911 
	C200.751801,403.454010 200.751801,398.401978 200.751801,393.250793 
	C195.448883,393.250793 190.396622,393.250793 185.000565,393.250793 
	C185.000565,397.443115 185.000565,401.393951 185.001419,406.311981 
M156.654938,393.000549 
	C155.437897,393.797516 153.242905,394.513672 153.169235,395.405121 
	C152.805664,399.804321 153.003830,404.249939 153.003830,408.740295 
	C158.569351,408.740295 163.621902,408.740295 168.737152,408.740295 
	C168.737152,403.424530 168.737152,398.371704 168.737152,393.000427 
	C164.857971,393.000427 161.237091,393.000427 156.654938,393.000549 
z"/>
<path fill="#FCD770" opacity="1.000000" stroke="none" 
	d="
M34.388195,360.999573 
	C27.427937,360.277710 25.052105,357.808838 25.015038,351.459320 
	C24.958643,341.799347 24.954550,332.138489 25.016294,322.478577 
	C25.057949,315.961700 27.967886,313.018890 34.489986,313.016388 
	C102.778374,312.990204 171.066788,312.991150 239.355194,313.014008 
	C246.142105,313.016266 248.954529,315.926056 248.988922,322.829590 
	C249.034576,331.989990 249.014069,341.150848 248.996140,350.311462 
	C248.980225,358.438324 246.407669,360.995514 238.208633,360.996368 
	C170.419846,361.003204 102.631065,361.000244 34.388195,360.999573 
M105.000473,336.520203 
	C105.000473,339.276642 105.000473,342.033051 105.000473,344.689728 
	C110.674858,344.689728 115.726418,344.689728 120.687622,344.689728 
	C120.687622,339.320953 120.687622,334.269348 120.687622,329.314697 
	C115.318878,329.314697 110.266441,329.314697 105.000473,329.314697 
	C105.000473,331.600708 105.000473,333.574036 105.000473,336.520203 
M75.687996,329.001404 
	C74.793358,329.788116 73.174171,330.532440 73.125259,331.368622 
	C72.866905,335.785309 73.004082,340.225159 73.004082,344.751831 
	C78.545975,344.751831 83.597992,344.751831 88.749184,344.751831 
	C88.749184,339.448853 88.749184,334.396606 88.749184,329.000519 
	C84.556465,329.000519 80.605827,329.000519 75.687996,329.001404 
M43.688000,329.001404 
	C42.793362,329.788116 41.174171,330.532471 41.125259,331.368652 
	C40.866901,335.785339 41.004078,340.225189 41.004078,344.751801 
	C46.545979,344.751801 51.597992,344.751801 56.749172,344.751801 
	C56.749172,339.448853 56.749172,334.396576 56.749172,329.000519 
	C52.556877,329.000519 48.606022,329.000519 43.688000,329.001404 
z"/>
<path fill="#FBD66F" opacity="1.000000" stroke="none" 
	d="
M471.343201,82.670166 
	C473.469299,84.528244 475.343933,86.135269 477.218567,87.742302 
	C477.041199,88.162361 476.863861,88.582420 476.686523,89.002480 
	C473.799591,89.002480 470.912689,89.002487 468.025757,89.002480 
	C457.051239,89.002457 446.076630,89.026398 435.102203,88.993904 
	C427.859772,88.972458 425.030609,86.235550 425.009735,79.159378 
	C424.968750,65.263138 424.997681,51.366684 424.997681,36.186523 
	C440.935883,52.172642 456.013824,67.295883 471.343201,82.670166 
z"/>
<path fill="#000000" opacity="1.000000" stroke="none" 
	d="
M443.000977,153.000458 
	C453.140411,153.000458 462.780151,153.000458 472.708954,153.000458 
	C472.708954,195.619797 472.708954,238.008820 472.708954,280.699036 
	C425.068573,280.699036 377.347961,280.699036 329.313599,280.699036 
	C329.313599,243.757507 329.313599,206.699783 329.313599,169.228943 
	C339.562897,169.228943 349.969238,169.228943 360.783569,169.228943 
	C360.783569,158.426056 360.783569,148.019745 360.783569,137.309265 
	C376.922729,137.309265 392.654877,137.309265 408.796021,137.309265 
	C408.796021,158.261322 408.796021,179.327133 408.796021,200.695541 
	C414.264404,200.695541 419.333618,200.695541 424.816650,200.695541 
	C424.816650,185.056412 424.816650,169.320389 424.816650,153.000458 
	C430.977112,153.000458 436.739197,153.000458 443.000977,153.000458 
M393.000000,213.500000 
	C393.000000,193.436157 393.000000,173.372299 393.000000,153.327591 
	C387.350861,153.327591 382.297485,153.327591 377.295135,153.327591 
	C377.295135,190.666306 377.295135,227.676651 377.295135,264.672729 
	C382.648438,264.672729 387.701813,264.672729 393.000000,264.672729 
	C393.000000,247.731125 393.000000,231.115570 393.000000,213.500000 
M441.000000,234.500000 
	C441.000000,244.577606 441.000000,254.655228 441.000000,264.656738 
	C446.683899,264.656738 451.737885,264.656738 456.687866,264.656738 
	C456.687866,232.635864 456.687866,200.958237 456.687866,169.342850 
	C451.316895,169.342850 446.262970,169.342850 441.000000,169.342850 
	C441.000000,190.956650 441.000000,212.228317 441.000000,234.500000 
M361.000000,194.537476 
	C361.000000,191.440308 361.000000,188.343155 361.000000,185.343323 
	C355.313660,185.343323 350.260742,185.343323 345.000000,185.343323 
	C345.000000,198.804413 345.000000,211.923370 345.000000,225.042313 
	C345.000000,238.273849 345.000000,251.505386 345.000000,264.654999 
	C350.689850,264.654999 355.743011,264.654999 361.000000,264.654999 
	C361.000000,241.382324 361.000000,218.454010 361.000000,194.537476 
M409.000000,221.643616 
	C409.000000,236.019043 409.000000,250.394485 409.000000,264.644470 
	C414.720276,264.644470 419.770844,264.644470 424.662048,264.644470 
	C424.662048,248.598679 424.662048,232.910294 424.662048,217.000687 
	C420.356079,217.000687 416.374115,217.192230 412.420746,216.938553 
	C409.396362,216.744492 408.623749,218.045532 409.000000,221.643616 
z"/>
<path fill="#030302" opacity="1.000000" stroke="none" 
	d="
M321.335571,402.614716 
	C299.680634,358.174408 323.756470,308.030182 371.078979,298.292450 
	C409.298126,290.427948 446.742706,315.279816 455.464325,354.298798 
	C463.785431,391.526031 439.331970,430.218750 401.947174,438.979004 
	C369.624725,446.552979 338.088501,432.418396 321.335571,402.614716 
M349.964203,325.429718 
	C321.594849,348.637695 325.777679,386.410980 340.810333,401.961639 
	C352.219727,390.514954 363.688477,379.131042 374.948181,367.544037 
	C376.231110,366.223816 376.883026,363.771362 376.908173,361.831970 
	C377.076477,348.835663 376.995697,335.836121 376.995728,322.837646 
	C376.995728,319.915741 376.995697,316.993835 376.995697,313.778839 
	C366.713867,315.250061 358.199402,319.109283 349.964203,325.429718 
M426.699066,406.174011 
	C433.972961,397.880615 438.603302,388.388214 440.205414,377.003326 
	C429.987213,377.003326 420.189240,376.987976 410.391327,377.008331 
	C403.073547,377.023560 394.934113,375.096283 388.669281,377.685089 
	C382.407043,380.272766 378.007172,387.385681 372.814240,392.538483 
	C365.792328,399.506134 358.792755,406.496338 351.746643,413.513702 
	C373.357880,431.173859 405.810272,428.011993 426.699066,406.174011 
M393.006592,352.452271 
	C393.006592,355.217316 393.006592,357.982361 393.006592,360.771423 
	C409.048157,360.771423 424.465332,360.771423 439.892548,360.771423 
	C438.720612,338.689850 415.229187,315.203857 393.006592,314.098816 
	C393.006592,326.564301 393.006592,339.013214 393.006592,352.452271 
z"/>
<path fill="#000000" opacity="1.000000" stroke="none" 
	d="
M253.000000,41.000477 
	C273.138794,41.000477 292.777588,41.000477 312.707520,41.000477 
	C312.707520,56.959160 312.707520,72.692978 312.707520,88.714043 
	C254.367325,88.714043 195.976196,88.714043 137.292542,88.714043 
	C137.292542,73.040901 137.292542,57.307018 137.292542,41.000477 
	C175.659836,41.000477 214.079910,41.000477 253.000000,41.000477 
M178.500000,57.000000 
	C170.079819,57.000000 161.659637,57.000000 153.347992,57.000000 
	C153.347992,62.700790 153.347992,67.757469 153.347992,72.682632 
	C201.379974,72.682632 249.063385,72.682632 296.652222,72.682632 
	C296.652222,67.300774 296.652222,62.241184 296.652222,57.000000 
	C257.369873,57.000000 218.434937,57.000000 178.500000,57.000000 
z"/>
<path fill="#000000" opacity="1.000000" stroke="none" 
	d="
M172.000000,120.999527 
	C160.193069,120.999527 148.886124,120.999527 137.290436,120.999527 
	C137.290436,115.705711 137.290436,110.636383 137.290436,105.280762 
	C195.639816,105.280762 254.029434,105.280762 312.709534,105.280762 
	C312.709534,110.295845 312.709534,115.364899 312.709534,120.999527 
	C266.000732,120.999527 219.250366,120.999527 172.000000,120.999527 
z"/>
<path fill="#000000" opacity="1.000000" stroke="none" 
	d="
M192.000000,233.000458 
	C232.466507,233.000458 272.433014,233.000458 312.699341,233.000458 
	C312.699341,238.275299 312.699341,243.344666 312.699341,248.709076 
	C254.380768,248.709076 195.991089,248.709076 137.300720,248.709076 
	C137.300720,243.725845 137.300720,238.657043 137.300720,233.000458 
	C155.316315,233.000458 173.408157,233.000458 192.000000,233.000458 
z"/>
<path fill="#000000" opacity="1.000000" stroke="none" 
	d="
M277.000000,216.999542 
	C230.201691,216.999542 183.903381,216.999542 137.302917,216.999542 
	C137.302917,211.730240 137.302917,206.661484 137.302917,201.293182 
	C195.614670,201.293182 254.004349,201.293182 312.697021,201.293182 
	C312.697021,206.270569 312.697021,211.339996 312.697021,216.999542 
	C301.022369,216.999542 289.261169,216.999542 277.000000,216.999542 
z"/>
<path fill="#000000" opacity="1.000000" stroke="none" 
	d="
M183.000000,265.000427 
	C215.800125,265.000427 248.100266,265.000427 280.699768,265.000427 
	C280.699768,270.274841 280.699768,275.343414 280.699768,280.709106 
	C233.047333,280.709106 185.324036,280.709106 137.300323,280.709106 
	C137.300323,275.724274 137.300323,270.655151 137.300323,265.000427 
	C152.315521,265.000427 167.407761,265.000427 183.000000,265.000427 
z"/>
<path fill="#000000" opacity="1.000000" stroke="none" 
	d="
M280.000000,169.000458 
	C291.140045,169.000458 301.780090,169.000458 312.709045,169.000458 
	C312.709045,174.293076 312.709045,179.362091 312.709045,184.718353 
	C265.028595,184.718353 217.305359,184.718353 169.291016,184.718353 
	C169.291016,179.705505 169.291016,174.636658 169.291016,169.000458 
	C205.997711,169.000458 242.748856,169.000458 280.000000,169.000458 
z"/>
<path fill="#000000" opacity="1.000000" stroke="none" 
	d="
M188.000000,152.999542 
	C170.861862,152.999542 154.223724,152.999542 137.293518,152.999542 
	C137.293518,147.710541 137.293518,142.641632 137.293518,137.284210 
	C184.966202,137.284210 232.689468,137.284210 280.706421,137.284210 
	C280.706421,142.289337 280.706421,147.358246 280.706421,152.999542 
	C250.006210,152.999542 219.253098,152.999542 188.000000,152.999542 
z"/>
<path fill="#000000" opacity="1.000000" stroke="none" 
	d="
M297.000427,147.907059 
	C297.000427,144.121567 297.000427,140.822708 297.000427,137.263809 
	C302.343109,137.263809 307.408173,137.263809 312.738464,137.263809 
	C312.738464,142.347382 312.738464,147.412399 312.738464,152.740677 
	C307.647980,152.740677 302.583191,152.740677 297.000458,152.740677 
	C297.000458,151.270401 297.000458,149.832047 297.000427,147.907059 
z"/>
<path fill="#000000" opacity="1.000000" stroke="none" 
	d="
M137.003433,171.198853 
	C137.939453,170.145615 138.853088,169.121185 139.809921,169.079102 
	C143.959473,168.896637 148.121613,169.000870 152.639130,169.000870 
	C152.639130,174.137115 152.639130,179.209351 152.639130,184.642563 
	C147.855423,184.642563 142.783661,184.642563 137.000931,184.642563 
	C137.000931,180.503983 137.000931,176.091873 137.003433,171.198853 
z"/>
<path fill="#000000" opacity="1.000000" stroke="none" 
	d="
M297.412598,265.403320 
	C302.704987,265.067078 307.653595,265.067078 312.793732,265.067078 
	C312.793732,270.470245 312.793732,275.535034 312.793732,280.790314 
	C307.522614,280.790314 302.457825,280.790314 297.068848,280.790314 
	C297.068848,275.639648 297.068848,270.689606 297.412598,265.403320 
z"/>
<path fill="#000000" opacity="1.000000" stroke="none" 
	d="
M112.999962,457.000427 
	C115.785530,457.000427 118.088852,457.000427 120.694839,457.000427 
	C120.694839,462.286102 120.694839,467.338898 120.694839,472.697815 
	C115.709503,472.697815 110.657341,472.697815 105.299400,472.697815 
	C105.299400,467.703918 105.299400,462.651672 105.299400,457.000427 
	C107.669640,457.000427 110.093674,457.000427 112.999962,457.000427 
z"/>
<path fill="#000000" opacity="1.000000" stroke="none" 
	d="
M88.999466,468.864319 
	C89.386765,471.967987 88.648048,473.269073 85.608589,473.064362 
	C81.651871,472.797852 77.663635,472.999207 73.345139,472.999207 
	C73.345139,467.801270 73.345139,462.745026 73.345139,457.341919 
	C78.205948,457.341919 83.261757,457.341919 88.999512,457.341919 
	C88.999512,460.898621 88.999512,464.641205 88.999466,468.864319 
z"/>
<path fill="#000000" opacity="1.000000" stroke="none" 
	d="
M56.999462,461.135559 
	C56.999504,465.238281 56.999504,468.860321 56.999504,472.737183 
	C51.628334,472.737183 46.575542,472.737183 41.259762,472.737183 
	C41.259762,467.621826 41.259762,462.569061 41.259762,457.003815 
	C45.750023,457.003815 50.195644,456.805634 54.594833,457.169220 
	C55.486301,457.242859 56.202450,459.437866 56.999462,461.135559 
z"/>
<path fill="#000000" opacity="1.000000" stroke="none" 
	d="
M221.135574,393.000488 
	C225.237091,393.000427 228.857971,393.000427 232.737152,393.000427 
	C232.737152,398.371704 232.737152,403.424530 232.737152,408.740295 
	C227.621902,408.740295 222.569351,408.740295 217.003830,408.740295 
	C217.003830,404.249939 216.805664,399.804321 217.169235,395.405121 
	C217.242905,394.513672 219.437897,393.797516 221.135574,393.000488 
z"/>
<path fill="#000000" opacity="1.000000" stroke="none" 
	d="
M185.000992,405.828400 
	C185.000565,401.393951 185.000565,397.443115 185.000565,393.250793 
	C190.396622,393.250793 195.448883,393.250793 200.751801,393.250793 
	C200.751801,398.401978 200.751801,403.454010 200.751801,408.995911 
	C196.225174,408.995911 191.785355,409.133057 187.368668,408.874725 
	C186.532471,408.825806 185.788132,407.206635 185.000992,405.828400 
z"/>
<path fill="#000000" opacity="1.000000" stroke="none" 
	d="
M157.135574,393.000488 
	C161.237091,393.000427 164.857971,393.000427 168.737152,393.000427 
	C168.737152,398.371704 168.737152,403.424530 168.737152,408.740295 
	C163.621902,408.740295 158.569351,408.740295 153.003830,408.740295 
	C153.003830,404.249939 152.805664,399.804321 153.169235,395.405121 
	C153.242905,394.513672 155.437897,393.797516 157.135574,393.000488 
z"/>
<path fill="#000000" opacity="1.000000" stroke="none" 
	d="
M105.000473,336.033783 
	C105.000473,333.574036 105.000473,331.600708 105.000473,329.314697 
	C110.266441,329.314697 115.318878,329.314697 120.687622,329.314697 
	C120.687622,334.269348 120.687622,339.320953 120.687622,344.689728 
	C115.726418,344.689728 110.674858,344.689728 105.000473,344.689728 
	C105.000473,342.033051 105.000473,339.276642 105.000473,336.033783 
z"/>
<path fill="#000000" opacity="1.000000" stroke="none" 
	d="
M76.171585,329.000977 
	C80.605827,329.000519 84.556465,329.000519 88.749184,329.000519 
	C88.749184,334.396606 88.749184,339.448853 88.749184,344.751831 
	C83.597992,344.751831 78.545975,344.751831 73.004082,344.751831 
	C73.004082,340.225159 72.866905,335.785309 73.125259,331.368622 
	C73.174171,330.532440 74.793358,329.788116 76.171585,329.000977 
z"/>
<path fill="#000000" opacity="1.000000" stroke="none" 
	d="
M44.171585,329.000977 
	C48.606022,329.000519 52.556877,329.000519 56.749172,329.000519 
	C56.749172,334.396576 56.749172,339.448853 56.749172,344.751801 
	C51.597992,344.751801 46.545979,344.751801 41.004078,344.751801 
	C41.004078,340.225189 40.866901,335.785339 41.125259,331.368652 
	C41.174171,330.532471 42.793362,329.788116 44.171585,329.000977 
z"/>
<path fill="#5CD6B3" opacity="1.000000" stroke="none" 
	d="
M393.000000,214.000000 
	C393.000000,231.115570 393.000000,247.731125 393.000000,264.672729 
	C387.701813,264.672729 382.648438,264.672729 377.295135,264.672729 
	C377.295135,227.676651 377.295135,190.666306 377.295135,153.327591 
	C382.297485,153.327591 387.350861,153.327591 393.000000,153.327591 
	C393.000000,173.372299 393.000000,193.436157 393.000000,214.000000 
z"/>
<path fill="#5CD6B3" opacity="1.000000" stroke="none" 
	d="
M441.000000,234.000000 
	C441.000000,212.228317 441.000000,190.956650 441.000000,169.342850 
	C446.262970,169.342850 451.316895,169.342850 456.687866,169.342850 
	C456.687866,200.958237 456.687866,232.635864 456.687866,264.656738 
	C451.737885,264.656738 446.683899,264.656738 441.000000,264.656738 
	C441.000000,254.655228 441.000000,244.577606 441.000000,234.000000 
z"/>
<path fill="#5CD6B3" opacity="1.000000" stroke="none" 
	d="
M361.000000,195.031586 
	C361.000000,218.454010 361.000000,241.382324 361.000000,264.654999 
	C355.743011,264.654999 350.689850,264.654999 345.000000,264.654999 
	C345.000000,251.505386 345.000000,238.273849 345.000000,225.042313 
	C345.000000,211.923370 345.000000,198.804413 345.000000,185.343323 
	C350.260742,185.343323 355.313660,185.343323 361.000000,185.343323 
	C361.000000,188.343155 361.000000,191.440308 361.000000,195.031586 
z"/>
<path fill="#5CD6B3" opacity="1.000000" stroke="none" 
	d="
M409.000092,221.161346 
	C408.623749,218.045532 409.396362,216.744492 412.420746,216.938553 
	C416.374115,217.192230 420.356079,217.000687 424.662048,217.000687 
	C424.662048,232.910294 424.662048,248.598679 424.662048,264.644470 
	C419.770844,264.644470 414.720276,264.644470 409.000000,264.644470 
	C409.000000,250.394485 409.000000,236.019043 409.000092,221.161346 
z"/>
<path fill="#5CD5B2" opacity="1.000000" stroke="none" 
	d="
M350.251160,325.210754 
	C358.199402,319.109283 366.713867,315.250061 376.995697,313.778839 
	C376.995697,316.993835 376.995728,319.915741 376.995728,322.837646 
	C376.995697,335.836121 377.076477,348.835663 376.908173,361.831970 
	C376.883026,363.771362 376.231110,366.223816 374.948181,367.544037 
	C363.688477,379.131042 352.219727,390.514954 340.810333,401.961639 
	C325.777679,386.410980 321.594849,348.637695 350.251160,325.210754 
z"/>
<path fill="#FBD66F" opacity="1.000000" stroke="none" 
	d="
M426.457001,406.436523 
	C405.810272,428.011993 373.357880,431.173859 351.746643,413.513702 
	C358.792755,406.496338 365.792328,399.506134 372.814240,392.538483 
	C378.007172,387.385681 382.407043,380.272766 388.669281,377.685089 
	C394.934113,375.096283 403.073547,377.023560 410.391327,377.008331 
	C420.189240,376.987976 429.987213,377.003326 440.205414,377.003326 
	C438.603302,388.388214 433.972961,397.880615 426.457001,406.436523 
z"/>
<path fill="#FF826E" opacity="1.000000" stroke="none" 
	d="
M393.006592,351.957214 
	C393.006592,339.013214 393.006592,326.564301 393.006592,314.098816 
	C415.229187,315.203857 438.720612,338.689850 439.892548,360.771423 
	C424.465332,360.771423 409.048157,360.771423 393.006592,360.771423 
	C393.006592,357.982361 393.006592,355.217316 393.006592,351.957214 
z"/>
<path fill="#FF826E" opacity="1.000000" stroke="none" 
	d="
M179.000000,57.000000 
	C218.434937,57.000000 257.369873,57.000000 296.652222,57.000000 
	C296.652222,62.241184 296.652222,67.300774 296.652222,72.682632 
	C249.063385,72.682632 201.379974,72.682632 153.347992,72.682632 
	C153.347992,67.757469 153.347992,62.700790 153.347992,57.000000 
	C161.659637,57.000000 170.079819,57.000000 179.000000,57.000000 
z"/>
</svg>