<svg version="1.1" id="Layer_1" xmlns="http://www.w3.org/2000/svg" xmlns:xlink="http://www.w3.org/1999/xlink" x="0px" y="0px"
	 width="100%" viewBox="0 0 512 512" enable-background="new 0 0 512 512" xml:space="preserve">
<path fill="#000000" opacity="1.000000" stroke="none" 
	d="
M513.000000,178.000000 
	C513.000000,289.972778 513.000000,401.445557 513.000000,512.959167 
	C342.402222,512.959167 171.804413,512.959167 1.103307,512.959167 
	C1.103307,342.443909 1.103307,171.887756 1.103307,1.165792 
	C171.666534,1.165792 342.333252,1.165792 513.000000,1.165792 
	C513.000000,59.862217 513.000000,118.681107 513.000000,178.000000 
M373.500000,25.000191 
	C351.512665,25.000196 329.525360,24.990652 307.538025,25.005312 
	C299.679260,25.010551 297.007782,27.644817 297.006073,35.426994 
	C296.994720,87.063637 296.995850,138.700287 297.004639,190.336929 
	C297.006042,198.448212 299.591187,200.995117 307.805420,200.996124 
	C364.605743,201.003143 421.406036,201.003189 478.206360,200.996063 
	C486.409454,200.995026 488.993744,198.442444 488.995178,190.318375 
	C489.004333,138.848297 489.003204,87.378220 488.996490,35.908138 
	C488.995392,27.470900 486.488220,25.004185 477.939850,25.002691 
	C443.459900,24.996666 408.979950,25.000193 373.500000,25.000191 
M155.500000,200.999832 
	C172.332565,200.999832 189.165146,201.006592 205.997711,200.996964 
	C214.515274,200.992096 216.994507,198.521835 216.996613,190.017441 
	C217.004562,157.852295 217.002838,125.687149 216.989929,93.522011 
	C216.989349,92.085098 216.844147,90.648254 216.770981,89.297668 
	C152.686066,89.297668 88.951675,89.297668 25.000195,89.297668 
	C25.000195,123.072319 24.995817,156.549927 25.003233,190.027542 
	C25.005117,198.529968 27.478640,200.995560 36.005600,200.996964 
	C75.503731,201.003448 115.001869,200.999832 155.500000,200.999832 
M33.039394,25.013960 
	C28.638063,25.317867 25.324961,27.655981 25.213995,31.951084 
	C24.862902,45.540577 25.084333,59.144859 25.084333,72.682655 
	C89.319984,72.682655 153.052216,72.682655 216.999786,72.682655 
	C216.999786,60.384815 217.004608,48.402889 216.998215,36.420971 
	C216.993332,27.293575 214.673431,25.001778 205.432922,25.001455 
	C148.266525,24.999462 91.100128,25.001099 33.039394,25.013960 
M489.000183,427.496277 
	C489.000061,400.528168 489.020416,373.560028 488.984772,346.591980 
	C488.976349,340.217590 486.115234,337.053467 480.125580,337.031403 
	C459.317200,336.954803 438.508118,336.953918 417.699738,337.036743 
	C412.140625,337.058838 409.045502,340.175140 409.034149,345.764465 
	C408.970245,377.227081 408.971863,408.689972 409.030701,440.152588 
	C409.041199,445.778198 412.093536,448.935425 417.620880,448.958679 
	C438.595642,449.046844 459.571289,449.049500 480.545959,448.952240 
	C485.799011,448.927887 488.793732,445.763367 488.967041,440.478729 
	C489.097931,436.487701 488.997620,432.489044 489.000183,427.496277 
M54.500019,449.000183 
	C68.150414,449.000031 81.800949,449.036621 95.451134,448.983826 
	C101.993568,448.958557 104.972458,446.049866 104.981010,439.577026 
	C105.022148,408.447479 105.025932,377.317780 104.976593,346.188232 
	C104.966812,340.017487 101.934395,337.036987 95.721985,337.020691 
	C75.246483,336.967041 54.770679,336.967529 34.295177,337.020355 
	C28.071209,337.036438 25.033104,340.008698 25.023455,346.167633 
	C24.974426,377.463654 24.970675,408.759857 25.028202,440.055817 
	C25.038961,445.909973 28.127296,448.891571 34.023537,448.977570 
	C40.514435,449.072296 47.007771,448.999817 54.500019,449.000183 
M312.996765,307.722565 
	C312.996765,312.008850 312.996765,316.295166 312.996765,320.765137 
	C307.512177,320.765137 302.451019,320.765137 296.896973,320.765137 
	C296.896973,313.657562 296.896973,306.768066 296.896973,299.577942 
	C269.977325,296.209320 243.571350,295.929810 216.845963,299.766266 
	C216.845963,307.122131 216.845963,313.890778 216.845963,320.727631 
	C211.433762,320.727631 206.372116,320.727631 200.947296,320.727631 
	C200.947296,314.710632 200.947296,308.956726 200.947296,301.513947 
	C191.632462,305.754303 182.897278,308.958130 174.969009,313.553986 
	C166.793961,318.292908 166.904282,323.549072 175.009628,328.598541 
	C180.581497,332.069672 186.719528,335.120972 193.018738,336.855865 
	C232.622299,347.763092 272.567413,347.496704 312.576813,339.226685 
	C322.696991,337.134857 332.545990,333.937408 340.796570,327.323944 
	C346.334717,322.884674 346.368652,319.085999 340.917816,314.745117 
	C332.832367,308.306091 323.213043,305.397003 312.996796,302.808411 
	C312.996796,304.487671 312.996796,305.640167 312.996765,307.722565 
M277.717804,408.264862 
	C240.583405,410.091339 203.872849,408.987610 168.996750,392.410919 
	C168.996750,399.695038 169.217392,406.811432 168.917160,413.905792 
	C168.725357,418.437866 170.347260,421.944916 174.066681,423.958557 
	C180.168427,427.261902 186.304901,430.979889 192.901932,432.810944 
	C232.345734,443.758820 272.217529,443.666840 312.023468,435.227600 
	C321.270569,433.267120 330.079987,428.782837 338.716919,424.673981 
	C341.431366,423.382660 344.404327,419.674011 344.694214,416.812012 
	C345.505463,408.802734 344.976685,400.657684 344.976685,392.076965 
	C323.892822,403.268951 301.489410,406.655975 277.717804,408.264862 
M271.277313,488.749451 
	C282.352448,487.514679 293.635254,487.207520 304.445007,484.787384 
	C315.514496,482.309113 326.281433,478.158417 336.834015,473.883606 
	C340.106567,472.557892 344.126343,468.683289 344.539398,465.545837 
	C345.622009,457.323059 344.904633,448.863281 344.904633,441.609650 
	C285.956116,462.729828 227.566696,462.780914 168.996674,441.528595 
	C168.996674,447.752380 169.235077,454.754639 168.913757,461.731140 
	C168.695618,466.467010 170.419479,470.066925 174.329681,472.148865 
	C180.452560,475.408936 186.642258,478.849609 193.212631,480.908783 
	C218.328186,488.780090 244.277161,489.462402 271.277313,488.749451 
M185.340210,351.204926 
	C180.015976,349.001373 174.691742,346.797852 168.996658,344.440826 
	C168.996658,351.560791 169.283722,358.523285 168.902374,365.449005 
	C168.616852,370.634338 170.651016,374.468292 174.905029,376.577698 
	C182.007492,380.099579 189.191040,383.925415 196.788254,385.902679 
	C233.179398,395.373718 269.975281,394.979889 306.781158,388.599823 
	C318.087952,386.639832 329.263000,383.549347 338.809113,376.738586 
	C341.342285,374.931244 344.405670,371.925415 344.659637,369.228271 
	C345.428162,361.066010 344.937439,352.785187 344.937439,345.307526 
	C292.472900,365.391510 239.588196,365.671814 185.340210,351.204926 
z"/>
<path fill="#E6E9ED" opacity="1.000000" stroke="none" 
	d="
M374.000000,25.000191 
	C408.979950,25.000193 443.459900,24.996666 477.939850,25.002691 
	C486.488220,25.004185 488.995392,27.470900 488.996490,35.908138 
	C489.003204,87.378220 489.004333,138.848297 488.995178,190.318375 
	C488.993744,198.442444 486.409454,200.995026 478.206360,200.996063 
	C421.406036,201.003189 364.605743,201.003143 307.805420,200.996124 
	C299.591187,200.995117 297.006042,198.448212 297.004639,190.336929 
	C296.995850,138.700287 296.994720,87.063637 297.006073,35.426994 
	C297.007782,27.644817 299.679260,25.010551 307.538025,25.005312 
	C329.525360,24.990652 351.512665,25.000196 374.000000,25.000191 
M443.499878,121.000183 
	C450.594879,121.000183 457.689850,121.000183 464.703674,121.000183 
	C464.703674,115.346901 464.703674,110.278908 464.703674,104.805954 
	C459.338074,104.805954 454.262817,104.805954 448.798950,104.805954 
	C448.798950,93.995110 448.798950,83.591599 448.798950,72.795013 
	C437.991974,72.795013 427.588470,72.795013 416.791992,72.795013 
	C416.791992,61.988117 416.791992,51.584599 416.791992,41.304436 
	C400.653442,41.304436 384.924927,41.304436 368.789429,41.304436 
	C368.789429,46.678448 368.789429,51.752045 368.789429,57.217316 
	C357.978241,57.217316 347.574829,57.217316 336.783936,57.217316 
	C336.783936,73.354515 336.783936,89.086212 336.783936,105.219505 
	C331.310486,105.219505 326.237061,105.219505 321.322205,105.219505 
	C321.322205,110.704414 321.322205,115.773163 321.322205,121.000183 
	C361.929535,121.000183 402.214752,121.000183 443.499878,121.000183 
M456.456757,185.000168 
	C459.228729,185.000168 462.000702,185.000168 464.710602,185.000168 
	C464.710602,179.365280 464.710602,174.296204 464.710602,169.281723 
	C416.695709,169.281723 368.970917,169.281723 321.290833,169.281723 
	C321.290833,174.637543 321.290833,179.706650 321.290833,185.000168 
	C366.209381,185.000168 410.837311,185.000168 456.456757,185.000168 
M464.242615,152.933487 
	C464.593140,147.760452 464.943634,142.587433 465.307892,137.211990 
	C432.842896,137.211990 401.115234,137.211990 369.220459,137.211990 
	C369.220459,142.493759 369.220459,147.562042 369.220459,152.994812 
	C400.718811,152.994812 431.998016,152.994812 464.242615,152.933487 
M346.423584,153.000168 
	C348.526703,153.000168 350.629852,153.000168 352.728455,153.000168 
	C352.728455,147.394958 352.728455,142.328629 352.728455,137.269226 
	C342.059113,137.269226 331.663574,137.269226 321.273804,137.269226 
	C321.273804,142.609558 321.273804,147.675873 321.273804,153.000168 
	C329.509216,153.000168 337.473358,153.000168 346.423584,153.000168 
z"/>
<path fill="#E6E9ED" opacity="1.000000" stroke="none" 
	d="
M155.000000,200.999832 
	C115.001869,200.999832 75.503731,201.003448 36.005600,200.996964 
	C27.478640,200.995560 25.005117,198.529968 25.003233,190.027542 
	C24.995817,156.549927 25.000195,123.072319 25.000195,89.297668 
	C88.951675,89.297668 152.686066,89.297668 216.770981,89.297668 
	C216.844147,90.648254 216.989349,92.085098 216.989929,93.522011 
	C217.002838,125.687149 217.004562,157.852295 216.996613,190.017441 
	C216.994507,198.521835 214.515274,200.992096 205.997711,200.996964 
	C189.165146,201.006592 172.332565,200.999832 155.000000,200.999832 
M49.545536,153.000168 
	C62.632751,153.000168 75.719963,153.000168 88.693375,153.000168 
	C88.693375,136.656509 88.693375,120.925285 88.693375,105.308075 
	C72.653557,105.308075 56.922321,105.308075 41.309677,105.308075 
	C41.309677,121.349182 41.309677,137.080307 41.309677,153.000168 
	C43.932938,153.000168 46.247696,153.000168 49.545536,153.000168 
M164.500000,185.000168 
	C176.593552,185.000168 188.687088,185.000168 200.700180,185.000168 
	C200.700180,179.342422 200.700180,174.273849 200.700180,169.290985 
	C158.008759,169.290985 115.617958,169.290985 73.299744,169.290985 
	C73.299744,174.655823 73.299744,179.724960 73.299744,185.000168 
	C103.566109,185.000168 133.533051,185.000168 164.500000,185.000168 
M110.603241,104.999817 
	C108.830017,104.999817 107.056801,104.999817 105.267776,104.999817 
	C105.267776,110.592186 105.267776,115.661087 105.267776,120.736572 
	C137.263367,120.736572 168.990250,120.736572 200.728058,120.736572 
	C200.728058,115.399513 200.728058,110.330605 200.728058,104.999817 
	C170.830963,104.999817 141.205200,104.999817 110.603241,104.999817 
M127.500046,153.000168 
	C151.919327,153.000168 176.338608,153.000168 200.709747,153.000168 
	C200.709747,147.362183 200.709747,142.293747 200.709747,137.282135 
	C168.693893,137.282135 136.969284,137.282135 105.290161,137.282135 
	C105.290161,142.637650 105.290161,147.706070 105.290161,153.000168 
	C112.552620,153.000168 119.526375,153.000168 127.500046,153.000168 
M42.717812,169.005219 
	C42.146778,169.606079 41.099411,170.192474 41.080677,170.810089 
	C40.940880,175.418762 41.004711,180.033600 41.004711,184.774841 
	C46.510967,184.774841 51.576252,184.774841 56.771515,184.774841 
	C56.771515,179.482101 56.771515,174.416779 56.771515,169.000259 
	C52.261410,169.000259 47.970524,169.000259 42.717812,169.005219 
z"/>
<path fill="#FCD770" opacity="1.000000" stroke="none" 
	d="
M33.486565,25.007746 
	C91.100128,25.001099 148.266525,24.999462 205.432922,25.001455 
	C214.673431,25.001778 216.993332,27.293575 216.998215,36.420971 
	C217.004608,48.402889 216.999786,60.384815 216.999786,72.682655 
	C153.052216,72.682655 89.319984,72.682655 25.084333,72.682655 
	C25.084333,59.144859 24.862902,45.540577 25.213995,31.951084 
	C25.324961,27.655981 28.638063,25.317867 33.486565,25.007746 
M120.991341,55.273125 
	C120.991341,50.538132 120.991341,45.803135 120.991341,41.376797 
	C115.187424,41.376797 110.126335,41.376797 105.380783,41.376797 
	C105.380783,46.818378 105.380783,51.878983 105.380783,57.379765 
	C110.828468,56.976948 115.871094,56.604084 120.991341,55.273125 
M72.999779,49.482315 
	C72.999779,51.906559 72.999779,54.330799 72.999779,56.701248 
	C78.649673,56.701248 83.702850,56.701248 88.698418,56.701248 
	C88.698418,51.342838 88.698418,46.290276 88.698418,41.304504 
	C83.339066,41.304504 78.285866,41.304504 72.999779,41.304504 
	C72.999779,43.910740 72.999779,46.214252 72.999779,49.482315 
M41.088261,41.756042 
	C41.088261,46.694454 41.088261,51.632866 41.088261,56.781288 
	C46.463345,56.781288 51.516071,56.781288 56.784760,56.781288 
	C56.784760,51.529430 56.784760,46.476704 56.784760,41.085896 
	C51.647778,41.085896 46.710899,41.085896 41.088261,41.756042 
z"/>
<path fill="#F0D0B4" opacity="1.000000" stroke="none" 
	d="
M489.000183,427.995056 
	C488.997620,432.489044 489.097931,436.487701 488.967041,440.478729 
	C488.793732,445.763367 485.799011,448.927887 480.545959,448.952240 
	C459.571289,449.049500 438.595642,449.046844 417.620880,448.958679 
	C412.093536,448.935425 409.041199,445.778198 409.030701,440.152588 
	C408.971863,408.689972 408.970245,377.227081 409.034149,345.764465 
	C409.045502,340.175140 412.140625,337.058838 417.699738,337.036743 
	C438.508118,336.953918 459.317200,336.954803 480.125580,337.031403 
	C486.115234,337.053467 488.976349,340.217590 488.984772,346.591980 
	C489.020416,373.560028 489.000061,400.528168 489.000183,427.995056 
M425.000183,426.456604 
	C425.000183,428.554199 425.000183,430.651764 425.000183,432.717865 
	C441.296478,432.717865 457.013245,432.717865 472.706512,432.717865 
	C472.706512,427.369507 472.706512,422.307831 472.706512,417.286499 
	C456.694733,417.286499 440.977936,417.286499 425.000183,417.286499 
	C425.000183,420.207611 425.000183,422.845062 425.000183,426.456604 
M436.518036,385.000183 
	C432.753204,385.000183 428.988342,385.000183 425.304993,385.000183 
	C425.304993,390.654694 425.304993,395.716125 425.304993,400.704712 
	C441.326752,400.704712 457.042053,400.704712 472.694153,400.704712 
	C472.694153,395.341888 472.694153,390.281250 472.694153,385.000183 
	C460.763733,385.000183 449.137665,385.000183 436.518036,385.000183 
M436.518036,353.000183 
	C432.753204,353.000183 428.988342,353.000183 425.304993,353.000183 
	C425.304993,358.654694 425.304993,363.716125 425.304993,368.704712 
	C441.326752,368.704712 457.042053,368.704712 472.694153,368.704712 
	C472.694153,363.341888 472.694153,358.281250 472.694153,353.000183 
	C460.763733,353.000183 449.137665,353.000183 436.518036,353.000183 
z"/>
<path fill="#F0D0B4" opacity="1.000000" stroke="none" 
	d="
M54.000031,449.000183 
	C47.007771,448.999817 40.514435,449.072296 34.023537,448.977570 
	C28.127296,448.891571 25.038961,445.909973 25.028202,440.055817 
	C24.970675,408.759857 24.974426,377.463654 25.023455,346.167633 
	C25.033104,340.008698 28.071209,337.036438 34.295177,337.020355 
	C54.770679,336.967529 75.246483,336.967041 95.721985,337.020691 
	C101.934395,337.036987 104.966812,340.017487 104.976593,346.188232 
	C105.025932,377.317780 105.022148,408.447479 104.981010,439.577026 
	C104.972458,446.049866 101.993568,448.958557 95.451134,448.983826 
	C81.800949,449.036621 68.150414,449.000031 54.000031,449.000183 
M60.500431,417.000183 
	C54.077721,417.000183 47.655014,417.000183 41.305710,417.000183 
	C41.305710,422.656433 41.305710,427.717712 41.305710,432.704895 
	C57.327549,432.704895 73.042297,432.704895 88.694572,432.704895 
	C88.694572,427.344147 88.694572,422.282867 88.694572,417.000183 
	C79.427490,417.000183 70.463844,417.000183 60.500431,417.000183 
M63.500038,385.000183 
	C56.078556,385.000183 48.657070,385.000183 41.303917,385.000183 
	C41.303917,390.652863 41.303917,395.714081 41.303917,400.706665 
	C57.323895,400.706665 73.038589,400.706665 88.696404,400.706665 
	C88.696404,395.347809 88.696404,390.286591 88.696404,385.000183 
	C80.429924,385.000183 72.464973,385.000183 63.500038,385.000183 
M77.481979,353.000183 
	C65.402931,353.000183 53.323879,353.000183 41.302361,353.000183 
	C41.302361,358.649353 41.302361,363.710693 41.302361,368.707367 
	C57.321327,368.707367 73.036583,368.707367 88.696800,368.707367 
	C88.696800,363.348999 88.696800,358.287628 88.696800,353.000183 
	C85.090492,353.000183 81.783020,353.000183 77.481979,353.000183 
z"/>
<path fill="#FAD56F" opacity="1.000000" stroke="none" 
	d="
M312.996765,307.257629 
	C312.996796,305.640167 312.996796,304.487671 312.996796,302.808411 
	C323.213043,305.397003 332.832367,308.306091 340.917816,314.745117 
	C346.368652,319.085999 346.334717,322.884674 340.796570,327.323944 
	C332.545990,333.937408 322.696991,337.134857 312.576813,339.226685 
	C272.567413,347.496704 232.622299,347.763092 193.018738,336.855865 
	C186.719528,335.120972 180.581497,332.069672 175.009628,328.598541 
	C166.904282,323.549072 166.793961,318.292908 174.969009,313.553986 
	C182.897278,308.958130 191.632462,305.754303 200.947296,301.513947 
	C200.947296,308.956726 200.947296,314.710632 200.947296,320.727631 
	C206.372116,320.727631 211.433762,320.727631 216.845963,320.727631 
	C216.845963,313.890778 216.845963,307.122131 216.845963,299.766266 
	C243.571350,295.929810 269.977325,296.209320 296.896973,299.577942 
	C296.896973,306.768066 296.896973,313.657562 296.896973,320.765137 
	C302.451019,320.765137 307.512177,320.765137 312.996765,320.765137 
	C312.996765,316.295166 312.996765,312.008850 312.996765,307.257629 
z"/>
<path fill="#FAD56F" opacity="1.000000" stroke="none" 
	d="
M278.183777,408.234131 
	C301.489410,406.655975 323.892822,403.268951 344.976685,392.076965 
	C344.976685,400.657684 345.505463,408.802734 344.694214,416.812012 
	C344.404327,419.674011 341.431366,423.382660 338.716919,424.673981 
	C330.079987,428.782837 321.270569,433.267120 312.023468,435.227600 
	C272.217529,443.666840 232.345734,443.758820 192.901932,432.810944 
	C186.304901,430.979889 180.168427,427.261902 174.066681,423.958557 
	C170.347260,421.944916 168.725357,418.437866 168.917160,413.905792 
	C169.217392,406.811432 168.996750,399.695038 168.996750,392.410919 
	C203.872849,408.987610 240.583405,410.091339 278.183777,408.234131 
z"/>
<path fill="#FDC529" opacity="1.000000" stroke="none" 
	d="
M270.798889,488.771545 
	C244.277161,489.462402 218.328186,488.780090 193.212631,480.908783 
	C186.642258,478.849609 180.452560,475.408936 174.329681,472.148865 
	C170.419479,470.066925 168.695618,466.467010 168.913757,461.731140 
	C169.235077,454.754639 168.996674,447.752380 168.996674,441.528595 
	C227.566696,462.780914 285.956116,462.729828 344.904633,441.609650 
	C344.904633,448.863281 345.622009,457.323059 344.539398,465.545837 
	C344.126343,468.683289 340.106567,472.557892 336.834015,473.883606 
	C326.281433,478.158417 315.514496,482.309113 304.445007,484.787384 
	C293.635254,487.207520 282.352448,487.514679 270.798889,488.771545 
z"/>
<path fill="#FDC529" opacity="1.000000" stroke="none" 
	d="
M185.704910,351.357483 
	C239.588196,365.671814 292.472900,365.391510 344.937439,345.307526 
	C344.937439,352.785187 345.428162,361.066010 344.659637,369.228271 
	C344.405670,371.925415 341.342285,374.931244 338.809113,376.738586 
	C329.263000,383.549347 318.087952,386.639832 306.781158,388.599823 
	C269.975281,394.979889 233.179398,395.373718 196.788254,385.902679 
	C189.191040,383.925415 182.007492,380.099579 174.905029,376.577698 
	C170.651016,374.468292 168.616852,370.634338 168.902374,365.449005 
	C169.283722,358.523285 168.996658,351.560791 168.996658,344.440826 
	C174.691742,346.797852 180.015976,349.001373 185.704910,351.357483 
z"/>
<path fill="#000000" opacity="1.000000" stroke="none" 
	d="
M442.999939,121.000183 
	C402.214752,121.000183 361.929535,121.000183 321.322205,121.000183 
	C321.322205,115.773163 321.322205,110.704414 321.322205,105.219505 
	C326.237061,105.219505 331.310486,105.219505 336.783936,105.219505 
	C336.783936,89.086212 336.783936,73.354515 336.783936,57.217316 
	C347.574829,57.217316 357.978241,57.217316 368.789429,57.217316 
	C368.789429,51.752045 368.789429,46.678448 368.789429,41.304436 
	C384.924927,41.304436 400.653442,41.304436 416.791992,41.304436 
	C416.791992,51.584599 416.791992,61.988117 416.791992,72.795013 
	C427.588470,72.795013 437.991974,72.795013 448.798950,72.795013 
	C448.798950,83.591599 448.798950,93.995110 448.798950,104.805954 
	C454.262817,104.805954 459.338074,104.805954 464.703674,104.805954 
	C464.703674,110.278908 464.703674,115.346901 464.703674,121.000183 
	C457.689850,121.000183 450.594879,121.000183 442.999939,121.000183 
M394.453369,104.999435 
	C396.545929,104.999435 398.638489,104.999435 400.709167,104.999435 
	C400.709167,88.692223 400.709167,72.999443 400.709167,57.311344 
	C395.364471,57.311344 390.314575,57.311344 385.295258,57.311344 
	C385.295258,73.316689 385.295258,89.009537 385.295258,104.999435 
	C388.218353,104.999435 390.849854,104.999435 394.453369,104.999435 
M361.481598,104.999435 
	C363.902588,104.999435 366.323578,104.999435 368.696136,104.999435 
	C368.696136,94.006790 368.696136,83.642166 368.696136,73.318970 
	C363.339569,73.318970 358.294220,73.318970 353.309814,73.318970 
	C353.309814,84.004898 353.309814,94.369682 353.309814,104.999435 
	C355.917358,104.999435 358.217987,104.999435 361.481598,104.999435 
M432.999512,99.409950 
	C432.999512,96.005211 432.999512,92.600464 432.999512,89.340652 
	C427.278168,89.340652 422.237701,89.340652 417.342987,89.340652 
	C417.342987,94.726967 417.342987,99.767693 417.342987,104.830338 
	C422.607391,104.830338 427.528259,104.830338 432.769073,104.830338 
	C432.850952,103.247513 432.925232,101.812340 432.999512,99.409950 
z"/>
<path fill="#000000" opacity="1.000000" stroke="none" 
	d="
M455.960999,185.000168 
	C410.837311,185.000168 366.209381,185.000168 321.290833,185.000168 
	C321.290833,179.706650 321.290833,174.637543 321.290833,169.281723 
	C368.970917,169.281723 416.695709,169.281723 464.710602,169.281723 
	C464.710602,174.296204 464.710602,179.365280 464.710602,185.000168 
	C462.000702,185.000168 459.228729,185.000168 455.960999,185.000168 
z"/>
<path fill="#000000" opacity="1.000000" stroke="none" 
	d="
M463.759918,152.964142 
	C431.998016,152.994812 400.718811,152.994812 369.220459,152.994812 
	C369.220459,147.562042 369.220459,142.493759 369.220459,137.211990 
	C401.115234,137.211990 432.842896,137.211990 465.307892,137.211990 
	C464.943634,142.587433 464.593140,147.760452 463.759918,152.964142 
z"/>
<path fill="#000000" opacity="1.000000" stroke="none" 
	d="
M345.930542,153.000168 
	C337.473358,153.000168 329.509216,153.000168 321.273804,153.000168 
	C321.273804,147.675873 321.273804,142.609558 321.273804,137.269226 
	C331.663574,137.269226 342.059113,137.269226 352.728455,137.269226 
	C352.728455,142.328629 352.728455,147.394958 352.728455,153.000168 
	C350.629852,153.000168 348.526703,153.000168 345.930542,153.000168 
z"/>
<path fill="#000000" opacity="1.000000" stroke="none" 
	d="
M49.053993,153.000168 
	C46.247696,153.000168 43.932938,153.000168 41.309677,153.000168 
	C41.309677,137.080307 41.309677,121.349182 41.309677,105.308075 
	C56.922321,105.308075 72.653557,105.308075 88.693375,105.308075 
	C88.693375,120.925285 88.693375,136.656509 88.693375,153.000168 
	C75.719963,153.000168 62.632751,153.000168 49.053993,153.000168 
M57.792545,121.108864 
	C57.426914,126.250244 57.061283,131.391617 56.679039,136.766632 
	C62.499218,136.766632 67.537506,136.766632 72.763519,136.766632 
	C72.763519,131.494385 72.763519,126.456070 72.763519,121.014030 
	C67.941551,121.014030 63.344513,121.014030 57.792545,121.108864 
z"/>
<path fill="#000000" opacity="1.000000" stroke="none" 
	d="
M164.000000,185.000168 
	C133.533051,185.000168 103.566109,185.000168 73.299744,185.000168 
	C73.299744,179.724960 73.299744,174.655823 73.299744,169.290985 
	C115.617958,169.290985 158.008759,169.290985 200.700180,169.290985 
	C200.700180,174.273849 200.700180,179.342422 200.700180,185.000168 
	C188.687088,185.000168 176.593552,185.000168 164.000000,185.000168 
z"/>
<path fill="#000000" opacity="1.000000" stroke="none" 
	d="
M111.091331,104.999817 
	C141.205200,104.999817 170.830963,104.999817 200.728058,104.999817 
	C200.728058,110.330605 200.728058,115.399513 200.728058,120.736572 
	C168.990250,120.736572 137.263367,120.736572 105.267776,120.736572 
	C105.267776,115.661087 105.267776,110.592186 105.267776,104.999817 
	C107.056801,104.999817 108.830017,104.999817 111.091331,104.999817 
z"/>
<path fill="#000000" opacity="1.000000" stroke="none" 
	d="
M127.000084,153.000168 
	C119.526375,153.000168 112.552620,153.000168 105.290161,153.000168 
	C105.290161,147.706070 105.290161,142.637650 105.290161,137.282135 
	C136.969284,137.282135 168.693893,137.282135 200.709747,137.282135 
	C200.709747,142.293747 200.709747,147.362183 200.709747,153.000168 
	C176.338608,153.000168 151.919327,153.000168 127.000084,153.000168 
z"/>
<path fill="#000000" opacity="1.000000" stroke="none" 
	d="
M43.198723,169.002747 
	C47.970524,169.000259 52.261410,169.000259 56.771515,169.000259 
	C56.771515,174.416779 56.771515,179.482101 56.771515,184.774841 
	C51.576252,184.774841 46.510967,184.774841 41.004711,184.774841 
	C41.004711,180.033600 40.940880,175.418762 41.080677,170.810089 
	C41.099411,170.192474 42.146778,169.606079 43.198723,169.002747 
z"/>
<path fill="#000000" opacity="1.000000" stroke="none" 
	d="
M120.952530,55.752171 
	C115.871094,56.604084 110.828468,56.976948 105.380783,57.379765 
	C105.380783,51.878983 105.380783,46.818378 105.380783,41.376797 
	C110.126335,41.376797 115.187424,41.376797 120.991341,41.376797 
	C120.991341,45.803135 120.991341,50.538132 120.952530,55.752171 
z"/>
<path fill="#000000" opacity="1.000000" stroke="none" 
	d="
M72.999779,49.000038 
	C72.999779,46.214252 72.999779,43.910740 72.999779,41.304504 
	C78.285866,41.304504 83.339066,41.304504 88.698418,41.304504 
	C88.698418,46.290276 88.698418,51.342838 88.698418,56.701248 
	C83.702850,56.701248 78.649673,56.701248 72.999779,56.701248 
	C72.999779,54.330799 72.999779,51.906559 72.999779,49.000038 
z"/>
<path fill="#000000" opacity="1.000000" stroke="none" 
	d="
M41.431137,41.420967 
	C46.710899,41.085896 51.647778,41.085896 56.784760,41.085896 
	C56.784760,46.476704 56.784760,51.529430 56.784760,56.781288 
	C51.516071,56.781288 46.463345,56.781288 41.088261,56.781288 
	C41.088261,51.632866 41.088261,46.694454 41.431137,41.420967 
z"/>
<path fill="#000000" opacity="1.000000" stroke="none" 
	d="
M425.000183,425.969543 
	C425.000183,422.845062 425.000183,420.207611 425.000183,417.286499 
	C440.977936,417.286499 456.694733,417.286499 472.706512,417.286499 
	C472.706512,422.307831 472.706512,427.369507 472.706512,432.717865 
	C457.013245,432.717865 441.296478,432.717865 425.000183,432.717865 
	C425.000183,430.651764 425.000183,428.554199 425.000183,425.969543 
z"/>
<path fill="#000000" opacity="1.000000" stroke="none" 
	d="
M437.014832,385.000183 
	C449.137665,385.000183 460.763733,385.000183 472.694153,385.000183 
	C472.694153,390.281250 472.694153,395.341888 472.694153,400.704712 
	C457.042053,400.704712 441.326752,400.704712 425.304993,400.704712 
	C425.304993,395.716125 425.304993,390.654694 425.304993,385.000183 
	C428.988342,385.000183 432.753204,385.000183 437.014832,385.000183 
z"/>
<path fill="#000000" opacity="1.000000" stroke="none" 
	d="
M437.014832,353.000183 
	C449.137665,353.000183 460.763733,353.000183 472.694153,353.000183 
	C472.694153,358.281250 472.694153,363.341888 472.694153,368.704712 
	C457.042053,368.704712 441.326752,368.704712 425.304993,368.704712 
	C425.304993,363.716125 425.304993,358.654694 425.304993,353.000183 
	C428.988342,353.000183 432.753204,353.000183 437.014832,353.000183 
z"/>
<path fill="#000000" opacity="1.000000" stroke="none" 
	d="
M61.000313,417.000183 
	C70.463844,417.000183 79.427490,417.000183 88.694572,417.000183 
	C88.694572,422.282867 88.694572,427.344147 88.694572,432.704895 
	C73.042297,432.704895 57.327549,432.704895 41.305710,432.704895 
	C41.305710,427.717712 41.305710,422.656433 41.305710,417.000183 
	C47.655014,417.000183 54.077721,417.000183 61.000313,417.000183 
z"/>
<path fill="#000000" opacity="1.000000" stroke="none" 
	d="
M64.000031,385.000183 
	C72.464973,385.000183 80.429924,385.000183 88.696404,385.000183 
	C88.696404,390.286591 88.696404,395.347809 88.696404,400.706665 
	C73.038589,400.706665 57.323895,400.706665 41.303917,400.706665 
	C41.303917,395.714081 41.303917,390.652863 41.303917,385.000183 
	C48.657070,385.000183 56.078556,385.000183 64.000031,385.000183 
z"/>
<path fill="#000000" opacity="1.000000" stroke="none" 
	d="
M77.978760,353.000183 
	C81.783020,353.000183 85.090492,353.000183 88.696800,353.000183 
	C88.696800,358.287628 88.696800,363.348999 88.696800,368.707367 
	C73.036583,368.707367 57.321327,368.707367 41.302361,368.707367 
	C41.302361,363.710693 41.302361,358.649353 41.302361,353.000183 
	C53.323879,353.000183 65.402931,353.000183 77.978760,353.000183 
z"/>
<path fill="#FF826E" opacity="1.000000" stroke="none" 
	d="
M393.967377,104.999435 
	C390.849854,104.999435 388.218353,104.999435 385.295258,104.999435 
	C385.295258,89.009537 385.295258,73.316689 385.295258,57.311344 
	C390.314575,57.311344 395.364471,57.311344 400.709167,57.311344 
	C400.709167,72.999443 400.709167,88.692223 400.709167,104.999435 
	C398.638489,104.999435 396.545929,104.999435 393.967377,104.999435 
z"/>
<path fill="#FF826E" opacity="1.000000" stroke="none" 
	d="
M361.000122,104.999435 
	C358.217987,104.999435 355.917358,104.999435 353.309814,104.999435 
	C353.309814,94.369682 353.309814,84.004898 353.309814,73.318970 
	C358.294220,73.318970 363.339569,73.318970 368.696136,73.318970 
	C368.696136,83.642166 368.696136,94.006790 368.696136,104.999435 
	C366.323578,104.999435 363.902588,104.999435 361.000122,104.999435 
z"/>
<path fill="#FF826E" opacity="1.000000" stroke="none" 
	d="
M432.999512,99.893555 
	C432.925232,101.812340 432.850952,103.247513 432.769073,104.830338 
	C427.528259,104.830338 422.607391,104.830338 417.342987,104.830338 
	C417.342987,99.767693 417.342987,94.726967 417.342987,89.340652 
	C422.237701,89.340652 427.278168,89.340652 432.999512,89.340652 
	C432.999512,92.600464 432.999512,96.005211 432.999512,99.893555 
z"/>
<path fill="#FF826E" opacity="1.000000" stroke="none" 
	d="
M58.270012,121.061447 
	C63.344513,121.014030 67.941551,121.014030 72.763519,121.014030 
	C72.763519,126.456070 72.763519,131.494385 72.763519,136.766632 
	C67.537506,136.766632 62.499218,136.766632 56.679039,136.766632 
	C57.061283,131.391617 57.426914,126.250244 58.270012,121.061447 
z"/>
</svg>